<svg width="126" height="43" viewBox="0 0 126 43" fill="none" xmlns="http://www.w3.org/2000/svg">
<rect x="0.0358887" width="32.7531" height="33.1084" rx="4" fill="#222F64"/>
<path d="M8.977 27.0194L7.9678 26.4953L6.52453 27.0179L7.31925 26.1294L6.39819 25.5616L7.87305 25.536L8.7258 24.6628L8.85654 25.5375L10.3086 25.5645L8.91971 26.1294L8.977 27.0194Z" fill="white"/>
<path d="M14.6172 27.9633L13.5647 27.4407L12.1405 27.9633L12.886 27.0762L11.9209 26.5099L13.4082 26.4843L14.2133 25.6126L14.4013 26.4843L15.8695 26.5113L14.5026 27.0762L14.6172 27.9633Z" fill="white"/>
<path d="M20.881 26.9924L19.8094 26.4698L18.4286 26.9924L19.1175 26.1053L18.1296 25.5389L19.6008 25.5127L20.35 24.6431L20.5843 25.5127L22.0393 25.5419L20.7173 26.1053L20.881 26.9924Z" fill="white"/>
<path d="M25.8749 24.3785L24.8128 23.8559L23.4878 24.3771L24.1261 23.49L23.1448 22.9251L24.5763 22.8996L25.2741 22.0307L25.5326 22.901L26.9509 22.9294L25.6839 23.4914L25.8749 24.3785Z" fill="white"/>
<path d="M28.2069 20.8644L27.1801 20.3418L25.9065 20.8615L26.5161 19.9752L25.5671 19.4095L26.9458 19.3862L27.612 18.5166L27.8668 19.3869L29.233 19.4161L28.0174 19.9781L28.2069 20.8644Z" fill="white"/>
<path d="M27.445 17.3183L26.4704 16.7949L25.232 17.3132L25.8409 16.4283L24.9448 15.8605L26.2706 15.8379L26.9346 14.969L27.1571 15.8401L28.4697 15.87L27.2856 16.4319L27.445 17.3183Z" fill="white"/>
<path d="M1.76416 4.96182C1.76416 4.96182 8.17922 5.78403 14.7331 6.85116C18.598 7.48021 19.5947 8.90596 20.4254 11.0883C20.6002 11.549 21.392 11.4972 22.172 10.7523C23.1379 9.82803 23.9973 8.88992 24.7494 8.40301C26.9169 7.00569 28.8016 7.43356 30.8736 7.30673C31.2717 7.28267 31.4839 7.2506 31.4839 7.29725C31.4839 7.35994 31.29 7.41825 30.8736 7.58517C29.81 8.01158 28.3293 8.71644 27.5742 9.57728C26.2911 11.0475 25.7461 14.8648 20.3432 18.4729C15.7063 21.5693 12.9439 21.5781 9.70183 22.8354C5.19498 24.5863 2.7616 27.0507 2.7616 27.0507C2.7616 27.0507 4.25483 23.1656 6.75137 20.9483C9.38379 18.6099 11.4896 17.2972 11.8642 15.1585C12.4811 11.6321 1.76416 4.96182 1.76416 4.96182Z" fill="#FBBC39"/>
<path d="M36.7175 31.1909V1.73637H52.3652V5.91376H41.9905V13.8472H50.9197V17.9823H41.9905V27.0135H52.493V31.1909H36.7175Z" fill="#222F64"/>
<path d="M74.0905 31.1909C73.5814 28.9969 72.9858 26.4647 72.3475 24.1438H62.2703C61.6327 26.5069 61.0378 28.9546 60.484 31.1909H55.1692C57.8053 20.9789 60.824 11.3995 64.3114 1.73711H70.7742C74.3894 11.6109 77.4934 21.57 79.9598 31.1909H74.0905ZM71.3699 20.008C70.3915 16.5901 69.2854 13.0031 68.1815 9.45772C67.8825 8.61437 67.5843 7.60119 67.3294 6.71483H67.2876C66.9894 7.60046 66.6919 8.61365 66.437 9.45772C65.3309 12.9179 64.2247 16.5901 63.2479 20.008H71.3699Z" fill="#222F64"/>
<path d="M88.8877 31.7391C86.5484 31.7391 84.5505 31.4016 82.3823 30.7696L83.0184 26.3808C84.8054 26.972 86.7614 27.3948 88.8018 27.3948C92.1188 27.3948 93.6495 25.7904 93.6495 23.3427C93.6495 20.8528 92.0343 19.7558 88.6321 17.9415C84.5079 15.7468 82.4661 13.595 82.4661 9.54375C82.4661 4.22635 86.5491 1.18825 91.8639 1.18825C93.9043 1.18825 96.0307 1.52573 97.6458 2.11615L96.8805 6.29354C95.3505 5.70312 93.6495 5.40791 91.991 5.40791C89.4401 5.40791 88.0791 6.88468 88.0791 8.86805C88.0791 11.3157 89.7794 12.455 92.6718 14.0586C96.796 16.2956 99.305 18.3213 99.305 22.5409C99.3043 28.6594 94.9664 31.7391 88.8877 31.7391Z" fill="#222F64"/>
<path d="M120.132 31.1909C119.622 28.9969 119.026 26.4647 118.389 24.1438H108.311C107.674 26.5069 107.077 28.9546 106.525 31.1909H101.21C103.846 20.9789 106.865 11.3995 110.352 1.73711H116.815C120.43 11.6109 123.533 21.57 126 31.1909H120.132ZM117.412 20.008C116.433 16.5901 115.327 13.0031 114.222 9.45772C113.924 8.61437 113.625 7.60119 113.371 6.71483H113.329C113.032 7.60046 112.733 8.61365 112.478 9.45772C111.373 12.9179 110.267 16.5901 109.289 20.008H117.412Z" fill="#222F64"/>
<path d="M6.1595 41.3271L6.08238 40.7579C5.70264 41.2032 5.35523 41.4183 4.84402 41.4183C3.93839 41.4183 3.62183 40.7345 3.62183 39.9218V37.4122H4.29462V39.784C4.29462 40.4291 4.45694 40.8592 4.9755 40.8592C5.37726 40.8592 5.63287 40.6442 6.01187 40.1755V37.4122H6.6854V41.3271H6.1595Z" fill="#222F64"/>
<path d="M9.70336 38.0186C9.59539 37.9785 9.44042 37.9487 9.33979 37.9487C9.10034 37.9487 8.89175 38.1863 8.47382 38.7614V41.3271H7.80029V37.4122H8.32619L8.39597 38.1323C8.77496 37.5645 9.00707 37.3269 9.36329 37.3269C9.5168 37.3269 9.64901 37.3422 9.80326 37.3954L9.70336 38.0186Z" fill="#222F64"/>
<path d="M11.8618 41.4183C10.7557 41.4183 10.1365 40.6507 10.1365 39.4152C10.1365 38.1484 10.7872 37.3269 11.9242 37.3269C13.023 37.3269 13.6415 38.0944 13.6415 39.3387C13.6415 40.5982 12.9995 41.4183 11.8618 41.4183ZM11.8772 37.8721C11.1883 37.8721 10.8489 38.4786 10.8489 39.3314C10.8489 40.2367 11.1662 40.8658 11.9007 40.8658C12.5978 40.8658 12.9298 40.2666 12.9298 39.4152C12.9298 38.5085 12.6124 37.8721 11.8772 37.8721Z" fill="#222F64"/>
<path d="M15.9633 41.3796C15.6849 41.3796 15.4293 41.341 15.1979 41.2958V42.9227H14.5244V37.4114H15.051L15.1047 38.0011C15.4756 37.5485 15.8392 37.3262 16.3658 37.3262C17.3485 37.3262 17.751 38.1863 17.751 39.2293C17.751 40.3905 17.209 41.3796 15.9633 41.3796ZM16.2343 37.8787C15.8781 37.8787 15.6071 38.0463 15.1972 38.5777V40.6886C15.422 40.7885 15.6695 40.8497 15.9787 40.8497C16.6904 40.8497 17.0305 40.2659 17.0305 39.284C17.0312 38.5777 16.8689 37.8787 16.2343 37.8787Z" fill="#222F64"/>
<path d="M21.5582 39.4604H19.1285C19.1285 40.3358 19.3922 40.8658 20.228 40.8658C20.676 40.8658 21.0161 40.7972 21.3723 40.6894L21.4575 41.2032C21.0778 41.3344 20.6217 41.4183 20.1193 41.4183C18.9669 41.4183 18.4175 40.7345 18.4175 39.3926C18.4175 38.1258 19.0132 37.3269 20.1039 37.3269C21.1322 37.3269 21.5655 38.0471 21.5655 39.0763C21.5655 39.1528 21.5582 39.338 21.5582 39.4604ZM20.8846 38.9852C20.9081 38.2788 20.6136 37.8335 20.0642 37.8335C19.4149 37.8335 19.1439 38.4312 19.1204 38.9852H20.8846Z" fill="#222F64"/>
<path d="M24.6142 41.3271L24.5605 40.9044C24.2506 41.212 23.9024 41.4183 23.4228 41.4183C22.6876 41.4183 22.2241 41.0042 22.2241 40.2753C22.2241 39.4385 22.905 39.0551 23.9032 39.0551H24.4753V38.7475C24.4753 38.1484 24.2748 37.8561 23.6549 37.8561C23.3222 37.8561 22.9513 37.9399 22.6185 38.0864L22.4863 37.5711C22.858 37.4187 23.3222 37.3262 23.7629 37.3262C24.7919 37.3262 25.1401 37.9027 25.1401 38.6163V41.3271H24.6142ZM24.4753 39.5289H23.8723C23.2296 39.5289 22.9204 39.7906 22.9204 40.2433C22.9204 40.6434 23.1371 40.8964 23.555 40.8964C23.9267 40.8964 24.1977 40.6886 24.4761 40.4051V39.5289H24.4753Z" fill="#222F64"/>
<path d="M28.6305 41.3272V38.9538C28.6305 38.3175 28.4601 37.8874 27.9504 37.8874C27.5398 37.8874 27.2923 38.101 26.9133 38.5624V41.3272H26.2397V37.4122H26.7664L26.8354 37.9858C27.2225 37.5346 27.5626 37.3269 28.0738 37.3269C28.986 37.3269 29.3033 38.0019 29.3033 38.8248V41.3279H28.6305V41.3272Z" fill="#222F64"/>
<path d="M36.0439 39.3613C36.0439 40.7192 35.3241 41.4044 34.179 41.4044C33.0574 41.4044 32.3457 40.7579 32.3457 39.4385V35.9675H33.0413V39.3846C33.0413 40.3599 33.4981 40.8278 34.2098 40.8278C34.9216 40.8278 35.363 40.3526 35.363 39.3912V35.9675H36.0439V39.3613Z" fill="#222F64"/>
<path d="M39.611 41.3272V38.9538C39.611 38.3175 39.4413 37.8874 38.9309 37.8874C38.5203 37.8874 38.2727 38.101 37.8937 38.5624V41.3272H37.2202V37.4122H37.7468L37.8166 37.9858C38.2037 37.5346 38.5445 37.3269 39.0542 37.3269C39.968 37.3269 40.2845 38.0019 40.2845 38.8248V41.3279H39.611V41.3272Z" fill="#222F64"/>
<path d="M41.5532 41.3271V37.9333H40.9656V37.4122H42.2267V41.3271H41.5532ZM41.8558 36.6432C41.5928 36.6432 41.3997 36.4507 41.3997 36.1818C41.3997 35.9215 41.5928 35.7291 41.8558 35.7291C42.1268 35.7291 42.3126 35.9215 42.3126 36.1818C42.3126 36.4507 42.1268 36.6432 41.8558 36.6432Z" fill="#222F64"/>
<path d="M44.8347 41.4183C43.7278 41.4183 43.1094 40.6507 43.1094 39.4152C43.1094 38.1484 43.7594 37.3269 44.8964 37.3269C45.9945 37.3269 46.6144 38.0944 46.6144 39.3387C46.6144 40.5982 45.9717 41.4183 44.8347 41.4183ZM44.8501 37.8721C44.1612 37.8721 43.8211 38.4786 43.8211 39.3314C43.8211 40.2367 44.1384 40.8658 44.8729 40.8658C45.5692 40.8658 45.9019 40.2666 45.9019 39.4152C45.9019 38.5085 45.5846 37.8721 44.8501 37.8721Z" fill="#222F64"/>
<path d="M49.8874 41.3272V38.9538C49.8874 38.3175 49.7177 37.8874 49.2065 37.8874C48.7959 37.8874 48.5484 38.101 48.1694 38.5624V41.3272H47.4958V37.4122H48.0225L48.0923 37.9858C48.4793 37.5346 48.8201 37.3269 49.3299 37.3269C50.2436 37.3269 50.5602 38.0019 50.5602 38.8248V41.3279H49.8874V41.3272Z" fill="#222F64"/>
<path d="M56.6578 41.3271C56.5418 40.8745 56.4184 40.3745 56.2869 39.9065H54.2597C54.1282 40.3752 53.9975 40.8745 53.8807 41.3271H53.1609C53.6802 39.4225 54.2597 37.6498 54.9024 35.9667H55.6912C56.3875 37.7562 56.9597 39.5617 57.4393 41.3271H56.6578ZM56.1393 39.354C55.9299 38.6622 55.6905 37.926 55.4503 37.2117C55.3886 37.0353 55.3269 36.8276 55.2726 36.6505H55.2645C55.2101 36.8268 55.1403 37.0419 55.0786 37.2117C54.8465 37.9107 54.6152 38.655 54.4059 39.354H56.1393Z" fill="#222F64"/>
<path d="M60.7975 37.4122C60.4729 38.7162 60.0704 40.029 59.568 41.3271H58.8408C58.3377 40.0129 57.9352 38.7089 57.6179 37.4122H58.3296C58.5544 38.3335 58.8012 39.2075 59.0803 40.069C59.142 40.2367 59.1963 40.4364 59.2426 40.6128H59.2507C59.297 40.4364 59.3594 40.2367 59.413 40.0603C59.6921 39.1922 59.9316 38.3095 60.1247 37.4122H60.7975Z" fill="#222F64"/>
<path d="M61.6877 41.3271V37.9333H61.1001V37.4122H62.3612V41.3271H61.6877ZM61.9903 36.6432C61.7273 36.6432 61.5342 36.4507 61.5342 36.1818C61.5342 35.9215 61.7273 35.7291 61.9903 35.7291C62.2613 35.7291 62.4471 35.9215 62.4471 36.1818C62.4471 36.4507 62.2606 36.6432 61.9903 36.6432Z" fill="#222F64"/>
<path d="M65.6181 41.3271L65.5652 40.9044C65.2552 41.212 64.9071 41.4183 64.4282 41.4183C63.6915 41.4183 63.228 41.0042 63.228 40.2753C63.228 39.4385 63.9089 39.0551 64.9063 39.0551H65.48V38.7475C65.48 38.1484 65.278 37.8561 64.6588 37.8561C64.3268 37.8561 63.9552 37.9399 63.6232 38.0864L63.491 37.5711C63.8626 37.4187 64.3268 37.3262 64.7675 37.3262C65.7951 37.3262 66.1454 37.9027 66.1454 38.6163V41.3271H65.6181ZM65.4807 39.5289H64.877C64.2357 39.5289 63.9243 39.7906 63.9243 40.2433C63.9243 40.6434 64.1417 40.8964 64.5589 40.8964C64.9298 40.8964 65.2009 40.6886 65.4807 40.4051V39.5289Z" fill="#222F64"/>
<path d="M68.877 41.3184C68.7308 41.357 68.498 41.3884 68.2813 41.3884C67.7245 41.3884 67.3455 41.158 67.3455 40.3679V37.9319H66.7961V37.4107H67.3382L67.5005 36.2743H68.0183V37.4107H68.877V37.9319H68.0183V40.1981C68.0183 40.7659 68.1961 40.8344 68.5678 40.8344H68.877V41.3184Z" fill="#222F64"/>
<path d="M69.8752 41.3271V37.9333H69.2869V37.4122H70.548V41.3271H69.8752ZM70.1771 36.6432C69.9141 36.6432 69.7209 36.4507 69.7209 36.1818C69.7209 35.9215 69.9141 35.7291 70.1771 35.7291C70.4481 35.7291 70.6339 35.9215 70.6339 36.1818C70.6339 36.4507 70.4481 36.6432 70.1771 36.6432Z" fill="#222F64"/>
<path d="M73.157 41.4183C72.0493 41.4183 71.4309 40.6507 71.4309 39.4152C71.4309 38.1484 72.0809 37.3269 73.2187 37.3269C74.316 37.3269 74.9366 38.0944 74.9366 39.3387C74.9366 40.5982 74.2932 41.4183 73.157 41.4183ZM73.1717 37.8721C72.4827 37.8721 72.1426 38.4786 72.1426 39.3314C72.1426 40.2367 72.4599 40.8658 73.1952 40.8658C73.8915 40.8658 74.2234 40.2666 74.2234 39.4152C74.2234 38.5085 73.9061 37.8721 73.1717 37.8721Z" fill="#222F64"/>
<path d="M78.2089 41.3272V38.9538C78.2089 38.3175 78.0399 37.8874 77.528 37.8874C77.1189 37.8874 76.8699 38.101 76.4924 38.5624V41.3272H75.8188V37.4122H76.3455L76.4145 37.9858C76.8016 37.5346 77.1424 37.3269 77.6529 37.3269C78.5666 37.3269 78.8839 38.0019 78.8839 38.8248V41.3279H78.2089V41.3272Z" fill="#222F64"/>
<path d="M82.737 41.411C82.3653 41.411 82.0091 41.357 81.6462 41.2499L81.7469 40.6434C82.0796 40.7498 82.4197 40.8198 82.7832 40.8198C83.4252 40.8198 83.766 40.467 83.766 39.9371C83.766 39.3919 83.3936 39.1616 82.7832 38.808C82.0561 38.4079 81.6844 38.0252 81.6844 37.3101C81.6844 36.4347 82.3425 35.8822 83.2871 35.8822C83.5956 35.8822 83.9599 35.9361 84.2074 36.0272L84.0987 36.5951C83.8431 36.5039 83.5493 36.458 83.2717 36.458C82.7061 36.458 82.4285 36.8028 82.4285 37.2256C82.4285 37.762 82.8001 38.0004 83.3569 38.3233C84.0994 38.7461 84.5166 39.1222 84.5166 39.8438C84.5152 40.8431 83.8042 41.411 82.737 41.411Z" fill="#222F64"/>
<path d="M87.5104 41.3271L87.4568 40.9044C87.1468 41.212 86.7987 41.4183 86.3191 41.4183C85.5846 41.4183 85.1196 41.0042 85.1196 40.2753C85.1196 39.4385 85.8005 39.0551 86.7987 39.0551H87.3716V38.7475C87.3716 38.1484 87.1696 37.8561 86.5512 37.8561C86.2192 37.8561 85.8468 37.9399 85.5148 38.0864L85.3826 37.5711C85.7542 37.4187 86.2192 37.3262 86.6584 37.3262C87.6881 37.3262 88.0363 37.9027 88.0363 38.6163V41.3271H87.5104ZM87.3716 39.5289H86.7678C86.1259 39.5289 85.8159 39.7906 85.8159 40.2433C85.8159 40.6434 86.0326 40.8964 86.4498 40.8964C86.8222 40.8964 87.0917 40.6886 87.3716 40.4051V39.5289Z" fill="#222F64"/>
<path d="M90.598 36.028C90.0104 36.028 89.9715 36.4733 89.9715 36.996V37.4114H90.7985V37.9326H89.9715V41.3264H89.2972V37.9326H88.7405V37.4114H89.2972V37.0105C89.2972 36.0892 89.5374 35.4915 90.4511 35.4915C90.6509 35.4915 90.7985 35.5068 90.93 35.5374V36.0287H90.598V36.028Z" fill="#222F64"/>
<path d="M94.3426 39.4604H91.9144C91.9144 40.3358 92.1766 40.8658 93.0117 40.8658C93.462 40.8658 93.8013 40.7972 94.1575 40.6894L94.2434 41.2032C93.863 41.3344 93.4069 41.4183 92.9045 41.4183C91.752 41.4183 91.2026 40.7345 91.2026 39.3926C91.2026 38.1258 91.7983 37.3269 92.889 37.3269C93.9181 37.3269 94.3522 38.0471 94.3522 39.0763C94.3514 39.1528 94.3426 39.338 94.3426 39.4604ZM93.6698 38.9852C93.6926 38.2788 93.3988 37.8335 92.8494 37.8335C92.1993 37.8335 91.9291 38.4312 91.9063 38.9852H93.6698Z" fill="#222F64"/>
<path d="M96.9426 41.3184C96.795 41.357 96.5629 41.3884 96.3455 41.3884C95.7887 41.3884 95.4105 41.158 95.4105 40.3679V37.9319H94.8611V37.4107H95.4031L95.5655 36.2743H96.0833V37.4107H96.9426V37.9319H96.0833V40.1981C96.0833 40.7659 96.261 40.8344 96.6327 40.8344H96.9426V41.3184Z" fill="#222F64"/>
<path d="M100.557 37.4122C100.139 39.1761 99.745 40.4517 99.3564 41.3271C98.7843 42.6472 98.4045 43 97.8559 43C97.6855 43 97.5312 42.9701 97.4078 42.9315L97.4306 42.4314H97.8169C98.0799 42.4314 98.2892 42.2091 98.6682 41.3337C98.2194 40.236 97.7089 38.7927 97.3762 37.4114H98.0953C98.3201 38.3539 98.5823 39.214 98.8695 40.0596C98.9304 40.236 98.9848 40.4437 99.0391 40.6194H99.0465C99.1016 40.4357 99.1618 40.2367 99.2161 40.0596C99.4791 39.2228 99.7119 38.3014 99.8816 37.4114H100.557V37.4122Z" fill="#222F64"/>
<path d="M106.258 41.3271C106.143 40.8745 106.02 40.3745 105.887 39.9065H103.861C103.729 40.3752 103.599 40.8745 103.481 41.3271H102.762C103.281 39.4225 103.861 37.6498 104.503 35.9667H105.291C105.987 37.7562 106.561 39.5617 107.04 41.3271H106.258ZM105.741 39.354C105.532 38.6622 105.292 37.926 105.052 37.2117C104.989 37.0353 104.928 36.8276 104.874 36.6505H104.867C104.811 36.8268 104.742 37.0419 104.681 37.2117C104.449 37.9107 104.216 38.655 104.007 39.354H105.741Z" fill="#222F64"/>
<path d="M110.778 41.2419C110.778 42.4708 110.291 43 109.052 43C108.767 43 108.38 42.9774 108.024 42.9089L108.048 42.4089C108.357 42.4315 108.705 42.4475 109.013 42.4475C109.803 42.4475 110.097 42.2026 110.097 41.2798V40.7659C109.742 41.1799 109.393 41.3651 108.929 41.3651C107.946 41.3651 107.552 40.5035 107.552 39.4757C107.552 38.324 108.101 37.3575 109.386 37.3575C109.834 37.3575 110.369 37.4486 110.778 37.5798V41.2419ZM110.098 38.0398C109.882 37.9487 109.619 37.8874 109.325 37.8874C108.612 37.8874 108.265 38.4625 108.265 39.4218C108.265 40.1208 108.427 40.8111 109.069 40.8111C109.425 40.8111 109.704 40.6434 110.098 40.1208V38.0398Z" fill="#222F64"/>
<path d="M114.803 39.4604H112.373C112.373 40.3358 112.635 40.8658 113.471 40.8658C113.92 40.8658 114.26 40.7972 114.617 40.6894L114.702 41.2032C114.322 41.3344 113.866 41.4183 113.363 41.4183C112.211 41.4183 111.662 40.7345 111.662 39.3926C111.662 38.1258 112.258 37.3269 113.348 37.3269C114.377 37.3269 114.81 38.0471 114.81 39.0763C114.81 39.1528 114.803 39.338 114.803 39.4604ZM114.13 38.9852C114.153 38.2788 113.859 37.8335 113.309 37.8335C112.659 37.8335 112.389 38.4312 112.366 38.9852H114.13Z" fill="#222F64"/>
<path d="M118.115 41.3272V38.9538C118.115 38.3175 117.945 37.8874 117.435 37.8874C117.023 37.8874 116.776 38.101 116.397 38.5624V41.3272H115.725V37.4122H116.25L116.32 37.9858C116.707 37.5346 117.048 37.3269 117.557 37.3269C118.472 37.3269 118.789 38.0019 118.789 38.8248V41.3279H118.115V41.3272Z" fill="#222F64"/>
<path d="M122.285 41.1872C121.93 41.3497 121.589 41.4037 121.287 41.4037C120.158 41.4037 119.655 40.6281 119.655 39.4378C119.655 38.0864 120.343 37.3422 121.357 37.3422C121.673 37.3422 121.99 37.4034 122.27 37.5485L122.115 38.0551C121.898 37.9625 121.649 37.894 121.396 37.894C120.676 37.894 120.367 38.4931 120.367 39.3686C120.367 40.3511 120.715 40.8337 121.402 40.8337C121.689 40.8337 121.921 40.7878 122.169 40.6726L122.285 41.1872Z" fill="#222F64"/>
<path d="M125.853 37.4122C125.435 39.1761 125.041 40.4517 124.652 41.3271C124.082 42.6472 123.702 43 123.152 43C122.983 43 122.828 42.9701 122.704 42.9315L122.727 42.4314H123.113C123.377 42.4314 123.587 42.2091 123.964 41.3337C123.515 40.236 123.005 38.7927 122.672 37.4114H123.392C123.616 38.3539 123.879 39.214 124.165 40.0596C124.227 40.236 124.281 40.4437 124.336 40.6194H124.343C124.397 40.4357 124.459 40.2367 124.513 40.0596C124.776 39.2228 125.009 38.3014 125.178 37.4114H125.853V37.4122Z" fill="#222F64"/>
<path d="M0 41.3271V35.9667H2.68457V36.5353H0.704379V38.2548H2.42897V38.8241H0.704379V40.7506H2.71542V41.3271H0Z" fill="#222F64"/>
</svg>
