<?xml version="1.0" encoding="UTF-8" standalone="no"?>
<svg
   xmlns:dc="http://purl.org/dc/elements/1.1/"
   xmlns:cc="http://creativecommons.org/ns#"
   xmlns:rdf="http://www.w3.org/1999/02/22-rdf-syntax-ns#"
   xmlns:svg="http://www.w3.org/2000/svg"
   xmlns="http://www.w3.org/2000/svg"
   xmlns:sodipodi="http://sodipodi.sourceforge.net/DTD/sodipodi-0.dtd"
   xmlns:inkscape="http://www.inkscape.org/namespaces/inkscape"
   height="51"
   width="100"
   version="1.1"
   id="svg102"
   sodipodi:docname="Flag_of_ICAO.svg"
   inkscape:version="0.92.4 (5da689c313, 2019-01-14)">
  <title
     id="title824">Icao logo</title>
  <metadata
     id="metadata108">
    <rdf:RDF>
      <cc:Work
         rdf:about="">
        <dc:format>image/svg+xml</dc:format>
        <dc:type
           rdf:resource="http://purl.org/dc/dcmitype/StillImage" />
        <dc:title>Icao logo</dc:title>
        <dc:date>13 sep 2020</dc:date>
      </cc:Work>
    </rdf:RDF>
  </metadata>
  <defs
     id="defs106" />
  <sodipodi:namedview
     pagecolor="#ffffff"
     bordercolor="#666666"
     borderopacity="1"
     objecttolerance="10"
     gridtolerance="10"
     guidetolerance="10"
     inkscape:pageopacity="0"
     inkscape:pageshadow="2"
     inkscape:window-width="1366"
     inkscape:window-height="705"
     id="namedview104"
     showgrid="false"
     inkscape:showpageshadow="false"
     inkscape:zoom="1"
     inkscape:cx="60.354802"
     inkscape:cy="8.5953458"
     inkscape:window-x="-8"
     inkscape:window-y="-8"
     inkscape:window-maximized="1"
     inkscape:current-layer="svg102" />
  <g
     id="g100"
     style="fill:#009edb;fill-opacity:1;fill-rule:evenodd"
     transform="matrix(0.2533427,0,0,0.2533427,-25.950791,-25.16679)">
    <path
       style="fill:#009edb;fill-opacity:1"
       d="m 189.07227,195.01172 -3.64063,0.084 -3.59961,0.25196 -3.59765,0.375 -3.51758,0.50195 -3.47266,0.66992 -3.43164,0.83789 -3.34766,0.91992 -3.30664,1.08789 -3.26367,1.21485 -3.18164,1.33789 -3.0957,1.46484 -3.05664,1.5918 -2.97071,1.71484 -2.88672,1.79883 -2.80468,1.92578 -2.72071,2.05078 -2.63476,2.13477 -2.55469,2.25977 -2.46875,2.34179 -2.34375,2.42774 -2.30078,2.55273 -2.13477,2.5957 -2.09179,2.72071 -1.92578,2.80273 -1.8418,2.84766 -1.71484,2.9707 -1.63282,3.01172 -1.46484,3.09766 -1.38086,3.13867 -1.25586,3.22265 -1.08789,3.26368 -1.00391,3.34765 H -2.1386719 l -0.5449219,-0.082 -0.3769531,-0.16797 -0.25,-0.25195 -0.2109375,-0.20899 -0.2089844,-0.125 -0.2910156,0.043 -0.4609375,0.29102 -0.7128906,0.54492 -0.4179687,0.41797 -0.3339844,0.37695 -0.2109375,0.41797 -0.125,0.37695 -0.083984,0.41797 v 0.37696 l 0.083984,0.37695 0.083984,0.37695 0.3359376,0.75391 0.4589843,0.75195 0.9628907,1.29688 0.7109374,0.8789 1.0039063,1.13086 1.3398437,1.29688 1.67382818,1.50586 1.96875002,1.63281 2.3007812,1.67383 2.5957032,1.75781 2.8867185,1.7168 h 12.011719 l 22.97461,0.041 h 34.023437 21.091792 l 23.89649,-0.041 1.75781,-1.25586 1.88281,-1.17188 2.05079,-1.08789 2.13476,-1.04687 -5.6914,-8.95508 H -0.88476562 -1.3867188 l -0.4589843,-0.084 -0.4199219,-0.125 -0.3769531,-0.16796 -0.2910157,-0.20899 -0.2519531,-0.25195 -0.1679687,-0.29102 -0.125,-0.33593 v -0.25196 l 0.083984,-0.16601 0.125,-0.084 0.2089843,-0.043 0.5019531,-0.041 0.4199219,0.041 H 127.25977 l 2.92968,4.52149 2.38477,3.72461 2.7207,4.43554 -2.51172,1.04493 -2.30078,1.13086 -2.13476,1.21289 -1.92383,1.33984 -1.80078,1.38086 -1.58985,1.46484 -1.42187,1.50586 -1.25586,1.5918 -1.08789,1.63086 -0.96289,1.71679 -0.83789,1.7168 -0.66992,1.79883 -0.54297,1.79883 -0.41797,1.79883 -0.29297,1.84179 -0.21094,1.88282 -0.084,1.84179 v 1.88281 l 0.12695,1.88477 0.20898,1.83984 0.29297,1.8418 0.37696,1.79883 0.41797,1.80078 0.50195,1.75781 0.54492,1.71485 0.62695,1.67578 0.66992,1.63086 0.71094,1.54883 0.71289,1.50585 0.79297,1.42383 0.79688,1.38086 0.79492,1.25586 1.38086,2.00781 1.42187,1.92579 1.46485,1.92382 1.54882,1.8418 1.58985,1.8418 1.63281,1.75781 1.67383,1.67383 1.75781,1.67383 1.80078,1.58984 1.83985,1.58984 1.88476,1.46485 1.92383,1.46484 1.9668,1.38281 2.05078,1.29688 2.05078,1.25586 2.0918,1.21289 2.13476,1.12891 2.17578,1.08984 2.21875,1.0039 2.25977,0.9629 2.30273,0.83593 2.30079,0.83789 2.38476,0.71094 2.34375,0.66992 2.42773,0.58594 2.46876,0.50195 2.46874,0.46094 2.47071,0.33399 2.50976,0.29296 2.55274,0.20899 2.55273,0.125 2.59571,0.043 2.59375,-0.043 2.55273,-0.125 2.55273,-0.20899 2.51172,-0.29296 2.51172,-0.33399 2.46875,-0.46094 2.42774,-0.50195 2.42578,-0.58594 2.38672,-0.66992 2.34375,-0.71094 2.34375,-0.83789 2.25781,-0.83593 2.26172,-0.9629 2.21679,-1.0039 2.17774,-1.08984 2.17578,-1.12891 2.0918,-1.21289 2.05078,-1.25586 2.00781,-1.29688 2.00977,-1.38281 1.92382,-1.46484 1.88477,-1.46485 1.8418,-1.58984 1.79882,-1.58984 1.71485,-1.67383 1.7168,-1.67383 1.63281,-1.75781 1.58984,-1.8418 1.50586,-1.8418 1.50781,-1.92382 1.42188,-1.92579 1.33984,-2.00781 0.83594,-1.25586 0.79687,-1.38086 0.75196,-1.42383 0.7539,-1.50585 0.71094,-1.54883 0.66992,-1.63086 0.58594,-1.67578 0.58594,-1.71485 0.50195,-1.75781 0.41992,-1.80078 0.375,-1.79883 0.29297,-1.8418 0.16797,-1.83984 0.125,-1.88477 0.043,-1.88281 -0.084,-1.84179 -0.20899,-1.88282 -0.29297,-1.84179 -0.41797,-1.79883 -0.54492,-1.79883 -0.71094,-1.79883 -0.79687,-1.7168 -0.96094,-1.71679 -1.13086,-1.63086 -1.25586,-1.5918 -1.42187,-1.50586 -1.5918,-1.46484 -1.75586,-1.38086 -1.92578,-1.33984 -2.13477,-1.21289 -2.34374,-1.13086 -2.50977,-1.04493 2.76172,-4.43554 2.34375,-3.72461 2.92773,-4.52149 h 129.35938 l 0.45898,-0.041 0.46094,0.041 0.20898,0.043 0.16797,0.084 0.084,0.16601 v 0.25196 l -0.125,0.33593 -0.21094,0.29102 -0.20899,0.25195 -0.33398,0.20899 -0.33398,0.16796 -0.41993,0.125 -0.46093,0.084 h -0.50196 -127.01367 l -5.6914,8.95508 2.13476,1.04687 2.00781,1.08789 1.92578,1.17188 1.75782,1.25586 h 113.95703 l 2.88672,-1.7168 2.5957,-1.75781 2.25977,-1.67383 1.96679,-1.63281 1.67383,-1.50586 1.33789,-1.29688 1.04688,-1.13086 0.66992,-0.8789 0.96289,-1.29688 0.46094,-0.75195 0.33398,-0.75391 0.16797,-0.7539 v -0.37696 l -0.043,-0.41797 -0.16601,-0.37695 -0.20899,-0.41797 -0.29492,-0.37695 -0.41797,-0.41797 -0.71094,-0.54492 -0.46093,-0.29102 -0.33399,-0.043 -0.20898,0.125 -0.20899,0.20899 -0.25195,0.25195 -0.33594,0.16797 -0.58398,0.082 h -109.4375 l -0.96289,-3.34765 -1.12891,-3.26368 -1.21484,-3.22265 -1.38086,-3.13867 -1.50586,-3.09766 -1.58985,-3.01172 -1.71679,-2.9707 -1.8418,-2.84766 -1.9668,-2.80273 -2.05078,-2.72071 -2.17578,-2.5957 -2.25976,-2.55273 -2.34375,-2.42774 -2.46875,-2.34179 -2.55274,-2.25977 -2.63672,-2.13477 -2.7207,-2.05078 -2.8457,-1.92578 -2.88868,-1.79883 -2.9707,-1.71484 -3.01172,-1.5918 -3.14062,-1.46484 -3.17969,-1.33789 -3.22266,-1.21485 -3.30664,-1.08789 -3.38867,-0.91992 -3.39062,-0.83789 -3.47266,-0.66992 -3.55859,-0.50195 -3.55664,-0.375 -3.59766,-0.25196 z m -1.13086,2.37109 v 16.45508 l -1.54883,0.0488 -2.63477,0.125 -2.5957,0.29297 -2.5957,0.33398 -2.55274,0.46094 -2.50976,0.58594 -2.46875,0.62695 -2.47071,0.75391 -2.38476,0.83789 -2.34375,0.91992 -2.34375,1.0039 -2.25977,1.13086 -2.2168,1.16993 -2.17773,1.25586 -2.0918,1.33984 -2.05078,1.42383 -2.00781,1.46484 -1.92578,1.58984 -1.88281,1.63086 -1.49024,1.35547 -11.5957,-11.5957 2.03711,-1.89453 2.46875,-2.13477 2.55273,-2.09375 2.63672,-1.92382 2.7207,-1.88477 2.80469,-1.75586 2.88672,-1.63281 2.92969,-1.50586 3.01172,-1.42383 3.09765,-1.29687 3.13867,-1.17188 3.18165,-1.00391 3.26367,-0.92187 3.30664,-0.79492 3.34765,-0.62696 3.43165,-0.50195 3.43164,-0.37695 3.51562,-0.20899 z m 2.30273,0 2.38477,0.0566 3.47461,0.20899 3.47265,0.37695 3.39063,0.50195 3.34765,0.62696 3.34766,0.79492 3.22266,0.92187 3.22265,1.00391 3.13867,1.17188 3.09571,1.29687 3.01367,1.42383 2.92969,1.50586 2.88672,1.63281 2.80468,1.75586 2.72071,1.88477 2.63671,1.92382 2.55274,2.09375 2.46875,2.13477 2.0625,1.95508 -11.57813,11.56836 -1.4375,-1.33985 0.23828,-0.0898 0.21094,-0.125 0.082,-0.25195 0.043,-0.45899 -2.21875,-1.80078 -0.71093,-2.67773 -2.38477,-2.55274 -0.043,-2.76172 -0.33398,-0.46094 -0.29297,-0.50195 -0.46094,-0.8789 -0.25195,-0.29297 -0.125,-0.043 h -0.16602 l -0.12695,0.043 -0.20899,0.125 -0.37695,0.50195 -0.66797,0.54492 -0.41992,0.41797 -0.041,0.125 0.125,0.043 0.043,0.125 0.041,0.125 -0.125,0.37695 -0.21094,0.33399 -0.125,0.084 -0.084,0.043 -0.58399,-0.33398 -0.54492,-0.25196 -0.50195,-0.16797 -0.50196,-0.125 -0.92187,-0.043 -0.91992,0.084 -0.87891,0.16797 -0.83789,0.25195 -0.84766,0.16016 -1.57812,-0.78907 -2.30274,-1.0039 -2.38476,-0.91992 -2.38672,-0.83789 -2.42578,-0.75391 -2.51172,-0.62695 -2.51172,-0.58594 -2.55273,-0.46094 -2.59375,-0.33398 -0.27735,-0.0312 1.69922,-0.38672 -0.66797,-0.50391 -0.7539,-0.58398 -0.33399,-0.33594 -0.29297,-0.37695 -0.16796,-0.375 -0.043,-0.46094 0.0586,-0.83594 0.0684,0.54297 1.54883,0.084 h 1.79883 l 0.83789,-0.043 0.83593,-0.16602 0.71094,-0.29297 0.29297,-0.16797 0.29297,-0.25195 0.83594,-0.082 0.79687,-0.21094 0.71094,-0.37695 0.62891,-0.45899 -0.043,-0.25195 -0.084,-0.20898 -0.25,-0.33399 -0.66992,-0.66992 -5.98437,0.33594 0.25,-0.33594 v -0.084 h -0.125 l -0.37696,0.125 -0.50195,0.25195 -1.08789,0.62695 -0.33594,0.25196 -0.041,0.041 h 0.041 l -0.0449,0.125 -0.58203,0.043 -0.62696,0.125 -0.96289,0.16797 -0.79492,0.16797 -0.8789,0.12304 -0.79493,0.21094 -0.33593,0.20899 -0.29297,0.20898 0.5039,1.92578 0.16602,0.45899 0.33398,0.29492 0.41993,0.25 0.54492,0.16797 1.21289,0.16601 1.25586,0.16797 0.041,0.043 v 0.125 0.33398 l 0.0176,0.0879 -1.14648,-0.1289 -2.67969,-0.125 -1.50586,-0.0469 z m -61.77148,0.34961 -0.29102,0.041 -0.46094,0.12695 -0.54492,0.25 -2.34375,1.04688 -1.75586,0.83593 -2.09375,1.08789 -2.30273,1.25586 -2.38477,1.46485 -2.46875,1.71679 -1.17187,0.91993 -1.17188,0.96289 -1.1289,1.04492 -1.00586,1.08789 -0.91993,1.13086 -0.83789,1.17187 -0.75195,1.21485 -0.66992,1.21289 -1.13086,2.34375 -0.87891,2.13476 -0.62695,1.88086 -0.62695,2.34571 -0.12696,0.50195 -0.041,0.37695 0.041,0.25 0.084,0.16797 0.125,0.043 0.21094,-0.084 0.25,-0.21093 0.25195,-0.33399 0.33398,-0.41992 0.50196,-0.45898 1.46484,-1.08789 1.9668,-1.21289 2.42773,-1.25586 1.25586,-0.66993 1.12891,-0.71093 1.13086,-0.88086 1.04492,-0.96094 1.04687,-1.17188 1.08985,-1.33984 1.1289,-1.58984 1.17188,-1.8418 1.25586,-1.92578 1.29687,-1.88281 1.29688,-1.75782 1.25586,-1.63085 2.13476,-2.59571 1.33789,-1.46484 0.33594,-0.33399 0.25,-0.33593 0.084,-0.20899 v -0.16601 z m 121.23828,0 -0.16602,0.084 -0.043,0.16601 0.12696,0.20899 0.25,0.33593 0.33593,0.33399 1.33985,1.46484 2.13281,2.59571 1.21484,1.63085 1.29688,1.75782 1.33984,1.88281 1.25391,1.92578 1.17187,1.8418 1.13086,1.58984 1.04492,1.33984 1.04688,1.17188 1.08789,0.96094 1.08789,0.88086 1.17188,0.71093 1.25586,0.66993 2.42773,1.25586 1.9668,1.21289 1.42187,1.08789 0.50391,0.45898 0.375,0.41992 0.25195,0.33399 0.25195,0.21093 0.16602,0.084 0.16797,-0.043 0.084,-0.16797 0.041,-0.25 -0.041,-0.37695 -0.125,-0.50195 -0.67187,-2.34571 -0.62695,-1.88086 -0.83594,-2.13476 -1.13086,-2.34375 -0.66797,-1.21289 -0.75391,-1.21485 -0.83789,-1.17187 -0.91992,-1.13086 -1.04687,-1.08789 -1.0879,-1.04492 -1.17187,-0.96289 -1.21289,-0.91993 -2.42774,-1.71679 -2.42773,-1.46485 -2.25977,-1.25586 -2.09179,-1.08789 -1.80078,-0.83593 -2.30078,-1.04688 -0.58594,-0.25 -0.41797,-0.12695 z m -47.24805,6.06836 -0.16601,0.16602 -0.37696,0.58593 -0.41797,1.00586 0.25,0.20899 0.25196,0.125 0.29297,0.084 h 0.29296 l 0.54493,-0.12695 0.54296,-0.20703 -0.20898,-0.043 -0.084,-0.084 v -0.41796 l -0.043,-0.25196 -0.125,-0.33398 -0.20899,-0.33399 -0.37695,-0.37695 z m -96.21094,2.76172 -0.21093,0.041 -0.25,0.12695 -0.71094,0.62695 -1.9668,1.92578 -3.05664,2.71875 -1.169921,1.13086 -1.046875,1.17188 -0.962891,1.21289 -0.878906,1.25586 -0.753906,1.29687 -0.667969,1.33985 -0.587891,1.38086 -0.501953,1.38086 -0.417969,1.38085 -0.333984,1.38086 -0.292969,1.42383 -0.210937,1.38086 -0.291016,2.67774 -0.08398,2.5957 v 2.80273 l 0.08398,2.63672 0.167969,4.64649 0.333984,5.90039 0.04102,0.66797 0.08398,0.41992 0.125,0.16797 0.167969,0.041 0.167969,-0.125 0.208984,-0.20898 0.376953,-0.66992 0.542969,-1.04688 0.669922,-1.04687 0.794922,-1.04493 0.83789,-1.0039 0.962891,-1.04688 1.003906,-1.04687 2.218749,-2.0918 2.42578,-2.13477 2.51172,-2.17578 2.63672,-2.26172 2.59375,-2.30078 1.25586,-1.21289 1.13086,-1.25586 1.08789,-1.29687 0.96094,-1.29688 0.92187,-1.29882 0.79492,-1.25586 1.38086,-2.46875 1.08789,-2.2168 0.79493,-1.88281 0.54492,-1.42383 0.29297,-0.83594 0.125,-0.46094 0.041,-0.37695 -0.041,-0.25195 -0.084,-0.125 h -0.16797 l -0.20703,0.16797 -0.25195,0.29296 -0.29297,0.46094 -0.46094,0.66797 -0.71094,0.91992 -1.04687,1.08985 -1.29687,1.25586 -1.63282,1.42187 -1.92383,1.54883 -2.30273,1.58984 -2.59375,1.67383 -2.51172,1.58985 -1.92578,1.42382 -0.79492,0.66992 -0.71094,0.66993 -0.66992,0.66992 -0.58594,0.71094 -1.046874,1.50586 -1.044922,1.75781 -2.511718,4.60351 1.339843,-4.05859 1.25586,-4.43555 1.171871,-4.85547 1.17188,-5.31445 0.62695,-2.63672 0.66992,-2.25976 0.66993,-1.96875 0.62695,-1.67383 0.6289,-1.42188 0.58594,-1.1289 0.83594,-1.63281 0.25195,-0.50196 0.125,-0.37695 v -0.20899 z m 165.6836,0 -0.12696,0.084 v 0.20899 l 0.084,0.37695 0.25,0.50196 0.88086,1.63281 0.54297,1.1289 0.6289,1.42188 0.66797,1.67383 0.66992,1.96875 0.62891,2.25976 0.62695,2.63672 1.21289,5.31445 1.17188,4.85547 1.21484,4.43555 1.33985,4.05859 -2.47071,-4.60351 -1.04687,-1.75781 -1.08789,-1.50586 -0.58594,-0.71094 -0.62695,-0.66992 -0.71094,-0.66993 -0.79492,-0.66992 -1.92578,-1.42382 -2.51172,-1.58985 -2.63672,-1.67383 -2.25977,-1.58984 -1.96484,-1.54883 -1.5918,-1.42187 -1.33984,-1.25586 -1.00391,-1.08985 -0.71094,-0.91992 -0.46093,-0.66797 -0.33399,-0.46094 -0.25195,-0.29296 -0.20899,-0.16797 h -0.125 l -0.125,0.125 v 0.25195 l 0.041,0.37695 0.125,0.46094 0.29297,0.83594 0.50195,1.42383 0.79492,1.88281 1.0879,2.2168 1.38281,2.46875 0.83593,1.25586 0.87891,1.29882 1.00391,1.29688 1.04687,1.29687 1.17188,1.25586 1.25586,1.21289 2.59375,2.30078 2.5957,2.26172 2.55273,2.17578 2.38477,2.13477 2.21875,2.0918 1.04492,1.04687 0.92188,1.04688 0.8789,1.0039 0.75196,1.04493 0.66992,1.04687 0.58594,1.04688 0.37695,0.66992 0.16797,0.20898 0.20898,0.125 0.125,-0.041 0.12695,-0.16797 0.125,-0.41992 0.041,-0.66797 0.29297,-5.90039 0.20898,-4.64649 0.043,-2.63672 0.041,-2.80273 -0.084,-2.5957 -0.29297,-2.67774 -0.20898,-1.38086 -0.29102,-1.42383 -0.3789,-1.38086 -0.41797,-1.38085 -0.50195,-1.38086 -0.58594,-1.38086 -0.66992,-1.33985 -0.75391,-1.29687 -0.83594,-1.25586 -0.96289,-1.21289 -1.04492,-1.17188 -1.17187,-1.13086 -3.05664,-2.71875 -1.96485,-1.92578 -0.71289,-0.62695 -0.29297,-0.12695 z m -83.99414,9.60156 v 13.51758 l -1.42188,0.0234 -2.55273,0.20898 -2.51172,0.29297 -2.50977,0.46094 -2.42773,0.54297 -2.38672,0.66992 -2.30078,0.79492 -2.30078,0.92188 -2.21875,1.0039 -2.17578,1.08789 -2.09375,1.21289 -2.05079,1.29688 -1.96679,1.42383 -1.88282,1.50781 -1.84179,1.54687 -0.71875,0.70313 -9.52149,-9.52148 1.28516,-1.22461 1.79883,-1.5918 1.88281,-1.50586 1.92578,-1.42188 1.9668,-1.38085 2.05078,-1.29688 2.0918,-1.21484 2.17773,-1.17188 2.17578,-1.04687 2.2168,-1.00391 2.30273,-0.87891 2.30274,-0.83593 2.38476,-0.71289 2.38477,-0.62696 2.42773,-0.54492 2.46875,-0.45898 2.51172,-0.33594 2.50977,-0.25 2.5957,-0.16797 z m 2.30273,0 1.42188,0.0234 2.55468,0.16797 2.55078,0.25 2.51172,0.33594 2.46875,0.45898 2.42774,0.54492 2.42773,0.62696 2.34375,0.71289 2.30078,0.83593 2.30274,0.87891 2.21679,1.00391 0.9375,0.44336 -0.0156,0.0176 -0.21094,0.33594 -0.041,0.12305 v 0.0859 l -0.20899,1.1289 -0.29297,1.17188 -0.0625,0.0957 1.73633,1.66211 0.37695,0.41797 0.16797,0.20898 0.041,0.37891 0.125,0.41797 0.41797,0.7539 1.08984,1.92383 -0.25195,0.46094 -0.084,0.33398 0.043,1.25586 0.91992,1.25391 0.043,0.29492 0.16602,0.45899 0.46094,1.08789 0.20898,0.54492 0.125,0.46094 v 0.33398 l -0.084,0.084 -0.082,0.041 -0.50391,-0.041 -0.58399,-0.084 -1.33984,-0.46094 -1.46484,-0.58593 -1.50782,-0.66993 -1.42187,-0.58398 -1.21484,-0.41992 -0.5,-0.084 -0.37696,-0.041 -0.29297,0.084 -0.125,0.20899 h -0.10546 l -0.10157,-0.0527 -0.0859,-0.11523 -0.21094,-0.58399 -0.16602,-0.54492 -0.12695,-0.12695 -0.125,0.043 -0.043,-0.125 -0.125,-0.25196 -0.62695,-0.75195 -0.91993,-0.96289 -1.13085,-1.00391 -1.13086,-0.88086 -0.54297,-0.375 -0.54492,-0.25195 -0.41797,-0.125 h -0.41797 l -0.29297,0.16797 -0.16797,0.33398 0.29297,0.33399 0.75391,0.71289 2.21875,2.05078 1.44726,1.33789 -0.73633,-0.33398 -2.30273,-0.92188 -2.34375,-0.79492 -2.38477,-0.66992 -2.42773,-0.54297 -2.46875,-0.46094 -2.50977,-0.29297 -2.55468,-0.20898 -1.42188,-0.0234 z m 25.63281,9.24219 -0.1875,-0.17969 0.041,0.21094 0.041,0.041 0.084,-0.041 z m 0.56446,-2.48242 v -0.082 l -0.084,0.33398 z m -86.29297,-0.66602 11.58594,11.58594 -0.45508,0.46484 -1.67383,1.79883 -1.58985,1.92578 -1.54882,1.9668 -1.46485,2.00781 -1.42383,2.05274 -1.29687,2.13281 -1.25586,2.17578 -1.17187,2.21875 -1.04493,2.30273 -1.0039,2.30079 -0.92188,2.38476 h -17.07422 l 0.96289,-3.22265 1.0879,-3.13672 1.21289,-3.13868 1.33984,-3.01367 1.46484,-2.97265 1.54688,-2.92774 1.71679,-2.84765 1.79883,-2.76172 1.88477,-2.67774 2.00781,-2.5957 2.09375,-2.50977 2.2168,-2.4707 z m 117.89844,0.0312 0.99609,1.01172 2.2168,2.4707 2.09375,2.50977 2.00781,2.5957 1.88281,2.67774 1.80078,2.76172 1.71485,2.84765 1.54882,2.92774 1.46485,2.97265 1.33984,3.01367 1.21289,3.13868 1.13086,3.13672 0.96094,3.22265 h -17.1582 l -0.87696,-2.38476 -1.00586,-2.30079 -1.04687,-2.30273 -1.17188,-2.21875 -1.2539,-2.17578 -1.29883,-2.13281 -1.38086,-2.05274 -1.46289,-2.00781 -1.54883,-1.9668 -1.63281,-1.88281 -1.67383,-1.8418 -0.43359,-0.44531 z m -157.195318,1.47266 -0.167968,0.043 -0.167969,0.084 -0.417969,0.33399 -1.464844,1.75781 -1.339843,1.8418 -1.25586,1.88281 -1.128906,2.00976 -1.087891,2.17578 -1.003906,2.34376 -0.96289,2.50976 -0.921875,2.76172 -0.751953,2.80469 -0.585938,2.63672 -0.376953,2.38671 -0.251953,2.0918 -0.125,1.71484 -0.08398,1.29688 v 1.08984 h 9.917969 l -0.04102,-3.26562 -0.04297,-2.0918 -0.125,-2.21875 -0.125,-2.17578 -0.04102,-5.18945 v -1.88282 l 0.08398,-1.71679 0.123047,-1.63086 0.126953,-1.46485 0.376954,-2.63671 0.460937,-2.13477 0.458985,-1.75781 0.417968,-1.29688 0.585938,-1.50781 0.125,-0.375 v -0.20898 l -0.08203,-0.16797 z m 196.441408,0 -0.125,0.043 -0.043,0.16797 v 0.20898 l 0.084,0.375 0.58594,1.50781 0.46094,1.29688 0.46094,1.75781 0.41797,2.13477 0.37695,2.63671 0.16601,1.46485 0.084,1.63086 0.084,1.71679 0.041,1.88282 -0.082,5.18945 -0.12696,2.17578 -0.125,2.21875 -0.041,2.0918 v 3.26562 h 9.87695 v -1.08984 l -0.043,-1.29688 -0.125,-1.71484 -0.25195,-2.0918 -0.41797,-2.38671 -0.54297,-2.63672 -0.79687,-2.80469 -0.91992,-2.76172 -0.9629,-2.50976 -1.0039,-2.34376 -1.04688,-2.17578 -1.17187,-2.00976 -1.21289,-1.88281 -1.38086,-1.8418 -1.46484,-1.75781 -0.37696,-0.33399 -0.20898,-0.084 z m -99.35156,8.24219 v 13.84179 l -0.62696,0.0137 -1.71679,0.125 -1.71485,0.25195 -1.67578,0.29297 -1.67187,0.37695 -1.5918,0.45898 -1.58984,0.54493 -1.54883,0.58593 -1.50586,0.71289 -1.50586,0.71094 -1.42383,0.83594 -1.38086,0.87891 -1.33984,0.96289 -1.25586,1.0039 -1.25391,1.08789 -0.12695,0.12305 -9.78711,-9.78711 0.66601,-0.63086 1.71485,-1.50586 1.79883,-1.42383 1.88281,-1.29687 1.96875,-1.25586 2.00781,-1.17188 2.05078,-1.04687 2.13477,-0.96289 2.17578,-0.83594 2.21875,-0.75391 2.25781,-0.66992 2.34571,-0.54297 2.34375,-0.41796 2.38476,-0.29493 2.42774,-0.16601 z m 2.30273,0 1.29688,0.0449 2.42773,0.16601 2.42773,0.29493 2.3418,0.41796 2.30274,0.54297 2.30078,0.66992 2.21875,0.75391 2.17578,0.83594 2.13476,0.96289 2.05079,1.04687 1.45312,0.84766 0.55469,0.4082 0.6289,0.45899 1.21289,0.71289 0.27735,0.13281 1.68945,1.16406 1.80078,1.42383 1.63477,1.40039 0.0801,0.1875 0.29297,0.29492 0.3789,0.35352 -9.72461,9.71484 -0.15429,-0.15039 -1.25586,-1.08789 -1.29688,-1.0039 -1.33789,-0.96289 -1.38086,-0.87891 -1.42383,-0.83594 -1.46484,-0.71094 -1.50781,-0.71289 -1.54883,-0.58593 -1.58789,-0.54493 -1.63281,-0.45898 -1.63282,-0.37695 -1.67383,-0.29297 -1.71679,-0.25195 -1.75782,-0.125 -0.58398,-0.0137 z m -46.85156,3.49609 9.53906,9.53906 -1.02148,1.07032 -1.5918,1.80078 -1.46484,1.92382 -1.42188,1.96875 -1.29883,2.00782 -1.21289,2.13476 -1.1289,2.13477 -1.00586,2.2168 -0.87696,2.30273 -0.79687,2.3418 -0.66797,2.38671 -0.54492,2.42774 -0.46094,2.46875 -0.33398,2.50977 -0.16602,2.51171 h -8.70703 l 1.8418,-1.08789 1.96679,-1.0039 2.09375,-0.91992 2.2168,-0.8379 -0.66992,-1.08789 -2.76172,-4.47851 -2.46875,-3.9336 -3.43164,-5.31445 0.8789,-2.30273 0.92188,-2.25977 1.04492,-2.17578 1.13086,-2.17773 1.17188,-2.13282 1.29687,-2.05078 1.33789,-2.00976 1.42383,-1.9668 1.46484,-1.88281 1.54883,-1.83985 1.63086,-1.75976 z m 80.12109,0.56641 0.66992,0.041 0.54297,0.16797 0.33594,0.20899 0.25195,0.25195 0.16602,0.33398 0.084,0.37696 v 0.37695 l -0.084,0.79492 -0.041,0.71094 v 0.33594 l 0.125,0.25 0.16797,0.16796 0.29297,0.084 0.16602,0.58398 0.0449,0.0664 -2.27344,2.26953 -0.4082,-0.86914 -0.33203,-0.50195 -0.21094,-0.29297 -0.25,-1.33985 -0.16797,-0.58593 -0.25195,-0.41797 -0.45899,-0.83789 v -0.62696 l 0.084,-0.6289 0.082,-0.29297 0.16797,-0.20898 0.16797,-0.20899 0.29296,-0.125 z m -113.62109,0.8789 -0.21094,0.041 -0.20703,0.16797 -0.20899,0.20898 -0.21093,0.29297 -0.46094,0.75391 -0.96094,1.17187 -1.84179,2.05078 -3.18164,3.38867 -2.00782,2.00977 -1.925779,1.9668 -3.472656,3.34765 -3.431641,3.18164 h 11.214846 l 1.38281,-2.7207 1.29688,-2.8457 1.17187,-2.76367 1.00391,-2.63672 1.50781,-4.35157 0.71094,-2.34375 0.082,-0.41796 -0.041,-0.29297 -0.084,-0.16797 z m 158.40039,0 -0.16602,0.041 -0.084,0.16797 v 0.29297 l 0.084,0.41796 0.71094,2.34375 1.50586,4.35157 1.00586,2.63672 1.12891,2.76367 1.29687,2.8457 1.42383,2.7207 h 11.17383 l -3.39063,-3.18164 -3.47461,-3.34765 -1.96484,-1.9668 -1.9668,-2.00977 -3.18164,-3.38867 -1.8418,-2.05078 -0.96289,-1.17187 -0.50195,-0.75391 -0.20898,-0.29297 -0.20899,-0.20898 -0.20898,-0.16797 z m -40.9043,6.00196 1.69141,1.61328 0.83789,0.25195 0.33398,0.125 0.25196,0.25195 0.33398,0.91993 0.25,0.41992 0.21094,0.20898 0.20898,0.125 0.83594,0.29297 0.75391,0.37695 1.42187,0.87891 1.38086,0.87891 0.71289,0.37695 0.79492,0.29297 1.79883,2.46875 2.21875,1.96679 0.125,0.41797 0.16797,0.37696 0.20898,0.20898 0.20899,0.16797 0.29297,0.084 h 0.33593 l 0.87696,-0.16796 1.04687,-0.79493 0.25196,-0.20898 0.084,-0.16797 -0.043,-0.082 -0.125,-0.043 -0.37695,-0.041 -0.33399,0.041 -0.043,-0.041 v -0.084 l 0.54492,-0.37695 1.29687,-0.75391 0.125,-0.41797 0.16797,-0.20898 0.16797,-0.084 0.0957,-0.0195 0.82422,1.81836 0.96289,2.25977 0.87891,2.25976 -3.43164,5.31641 -2.51172,3.93359 -2.76172,4.51953 -0.62695,1.08789 2.21679,0.8379 2.09375,0.91992 1.9668,1.0039 1.8418,1.08789 h -8.70899 l -0.20507,-2.51171 -0.29297,-2.50977 -0.23438,-1.25977 0.0664,-0.0801 0.46094,-0.91993 0.33398,-0.96289 0.084,-0.50195 0.041,-0.50195 -1.08789,-1.13086 0.043,-1.13086 0.16601,-1.12891 0.16797,-1.08789 0.084,-1.17187 -0.29297,-0.33594 -0.29297,-0.50195 -0.62695,-1.29688 -0.46094,-1.33789 -0.12695,-0.58789 -0.041,-0.5 -0.62695,-0.75391 -0.54492,-0.83789 -0.54297,-0.83593 -0.58594,-0.75391 -0.29297,0.041 -0.25195,0.084 -0.25,0.084 -0.29297,0.043 -0.12696,0.91992 -0.0781,0.50782 -0.17383,-0.33985 -1.21289,-2.13476 -1.29687,-2.00782 -0.0645,-0.0898 -0.0176,-0.28711 -0.43946,-0.34375 -0.90039,-1.24805 -0.97461,-1.24414 0.0527,-0.3457 h -0.32422 l -0.26172,-0.33398 -1.54883,-1.80078 -1,-1.04883 z m -72.82617,3.72265 9.78906,9.78906 -0.51562,0.53321 -1.08789,1.21289 -1.00391,1.29687 -0.96289,1.33985 -0.87891,1.38086 -0.35546,0.60742 -0.0625,-0.0625 -0.084,-0.21094 -0.16601,0.37695 -0.16797,0.29297 -0.41993,0.58594 -0.50195,0.58594 -0.45898,0.58594 0.29297,0.29296 0.125,0.29297 v 0.0137 l -0.46094,1.03321 -0.23242,0.57617 -0.43555,0.13476 -0.54492,0.041 h -0.54492 l -1.17188,0.67188 -0.084,-0.21094 -0.041,-0.16797 0.041,-0.29297 -0.20703,-0.041 h -0.21094 l -0.54297,0.16797 -0.50195,0.25 -0.37696,0.16797 -1.67578,2.38477 -0.041,0.41797 -0.084,0.33593 -0.16601,0.33594 -0.16797,0.25 -0.41797,0.50195 -0.46094,0.41797 -0.043,1.9668 -1.42187,1.75781 0.041,0.41992 0.12696,0.41797 0.0273,0.125 h -7.25391 l 0.19532,-2.25976 0.29296,-2.42774 0.41797,-2.34375 0.54492,-2.30078 0.62696,-2.30273 0.7539,-2.2168 0.87891,-2.17578 0.96094,-2.13477 1.04687,-2.05078 1.13086,-2.00976 1.25586,-1.92383 1.33789,-1.88281 1.42383,-1.80078 1.50586,-1.75782 z m 68.85742,0.2461 0.17774,0.0312 v 0.084 l 0.084,0.125 0.33594,0.46094 1.29687,1.42187 1.50586,1.63282 1.12696,1.20898 0.004,0.004 0.002,0.002 0.20704,0.54297 0.33398,0.58593 0.25195,0.58594 0.125,0.54297 0.54493,0.50195 0.60351,0.33985 0.0234,0.0371 1.15625,1.98437 -3.03906,3.08008 0.041,0.33594 0.084,0.29101 0.33398,0.46094 0.37695,0.041 0.41993,0.084 0.79492,0.12695 1.25586,1.17188 1.33789,1.08789 1.33984,1.12891 0.56836,0.49609 0.10156,0.29883 0.39063,1.33984 -0.22461,0.50195 -0.46094,0.83594 -0.54297,0.83789 -1.1289,1.58985 -0.46094,0.7539 -0.33594,0.62696 -1.17187,1.13086 h -0.42188 l 0.13086,0.16796 0.75195,0.71094 h 0.91993 l 0.92187,-0.96289 0.58594,-0.41797 0.25195,-0.125 0.29297,-0.043 0.25,4.06055 0.41797,-0.084 0.29297,-0.20899 0.21094,-0.29297 0.125,-0.41992 0.16601,-0.79492 0.12695,-0.71094 0.83399,0.86524 0.002,0.0137 0.15625,2.25976 h -12.02539 l 0.27734,-0.58593 2.72071,-1.29688 0.084,-1.8418 2.21875,-0.75976 -0.043,0.2168 0.084,0.16601 0.20898,0.084 h 0.0371 l -0.16211,-0.20899 -0.084,-0.20898 v -0.0645 l 0.79492,-0.27148 -0.96289,-1.88281 -0.37695,-0.084 -0.29297,-0.082 -0.25,-0.084 -0.084,-0.12696 v -0.20898 -0.46094 -0.41797 l 0.041,-0.45898 0.20898,-0.41992 -0.25,-0.041 -0.25195,0.041 h -0.20899 l -0.043,-0.084 -0.041,-0.082 0.87891,-2.17773 -2.92969,-1.00391 -0.25,0.25195 -0.16797,0.29297 -0.25195,0.25 -0.16602,0.043 -0.20898,0.041 -1.54883,-0.45899 -0.71094,-0.7539 -0.33594,-0.37696 -0.37695,-0.33398 -0.33594,-1.29883 -4.43359,-2.46875 V 259.293 l -0.043,-0.37695 -0.084,-0.125 -0.084,-0.12696 -0.91992,-0.082 h -0.20898 l -0.084,0.041 v 0.46093 l 0.0195,0.17188 -0.81445,-1.05078 -1.08789,-1.21289 -0.49414,-0.51172 z m -35.47851,1.27343 v 12.17188 l -0.082,0.0195 -0.62891,0.37695 -0.50195,0.25 -0.62696,0.21094 -0.7539,0.125 h -0.87891 l -0.37695,0.25195 -0.29297,0.20899 -0.25195,0.125 -0.33399,0.041 -0.66992,-0.125 -0.41797,-0.16601 -0.25,-0.12696 -0.33594,-0.041 -0.71094,1.04492 -0.084,0.37695 -0.125,0.37696 -0.16797,0.29297 -0.16797,0.125 -1.88281,0.8789 -0.37695,0.25196 -0.20899,0.16796 -0.29297,0.37696 -0.37695,0.33398 -0.11328,0.0957 -9.38672,-9.38867 0.041,-0.0391 1.17187,-1.00391 1.21485,-0.96484 1.21289,-0.87695 1.29687,-0.79493 1.33985,-0.79687 1.38085,-0.66797 1.38086,-0.66992 1.46485,-0.54492 1.46484,-0.50196 1.50586,-0.41796 1.54883,-0.37696 1.54883,-0.25195 1.63281,-0.20899 1.58984,-0.125 z m 2.30273,0.002 0.46094,0.0117 1.63086,0.125 1.58984,0.20899 1.5918,0.25195 1.50586,0.37696 1.50586,0.41796 1.50781,0.50196 1.42187,0.54492 1.42383,0.66992 1.38086,0.66797 1.29688,0.79687 1.29687,0.79493 1.25586,0.87695 1.21484,0.96484 1.12891,1.00391 0.0918,0.084 -4.60938,4.60547 -0.16992,-0.1289 -0.41797,-0.41797 -0.16797,-0.25195 -0.125,-0.20899 -0.043,-0.25 0.12696,-0.21094 -0.29297,0.16797 -0.29297,0.084 -0.66992,0.16797 -0.29297,0.16796 -0.25195,0.20899 -0.20899,0.29101 -0.125,0.41993 -0.46093,-0.16797 -0.33399,-0.25196 -0.20898,-0.25 -0.20899,-0.33398 -0.25195,-0.50391 -0.125,-0.125 -0.12695,-0.041 h -0.29297 l -0.29102,0.16601 -0.20898,0.25196 -0.084,0.29297 v 0.16796 l 0.084,0.041 h 0.125 l 0.084,-0.20898 0.041,0.25195 0.041,1.08789 -0.041,0.58398 -0.084,0.41992 -0.041,0.084 h -0.084 l -0.16797,-0.37695 -0.125,1.63281 -2.42773,-0.16797 -0.125,0.29297 -0.16797,0.16797 -0.25195,0.084 -0.29102,0.041 -0.71289,-0.20899 -0.62695,-0.20898 -0.20899,-0.12695 -0.084,-0.16797 v -0.20899 l 0.125,-0.33398 -0.54492,-0.20899 -0.75196,-0.46093 -0.7539,-0.54297 -0.20899,-0.25196 -0.125,-0.20898 -2.8457,-0.625 z m 43.63477,8.96093 0.22461,0.13086 0.62695,0.58594 0.29297,0.33594 0.20898,0.375 0.125,0.3789 0.084,0.41602 -0.66993,-0.54297 -0.11523,-0.084 -0.30273,-0.66797 z m -67.89453,0.93946 7.6875,7.6875 v 0.041 l 0.041,0.21094 v 0.20898 l -0.125,0.125 -2.21875,-0.62695 -0.20898,-0.25195 -0.084,-0.084 -0.16797,0.043 -0.25,0.041 -0.50195,-0.58594 -0.20898,-0.25 v -0.33594 l -0.12696,-0.25 -0.125,-0.16797 -0.29101,-0.29296 -0.50391,-0.46094 -0.58594,-0.33399 -0.62695,-0.25195 -0.66992,-0.16602 -0.71094,-0.084 h -0.66992 l -0.66992,0.041 -0.62696,0.084 -1.42382,0.87891 -0.46094,-0.20899 -0.31836,-0.0801 0.57031,-0.88281 0.87695,-1.25586 0.96485,-1.17187 1.0039,-1.17188 z m 46.23828,0.0215 0.41015,0.42578 1.00391,1.17188 0.92187,1.17187 0.28907,0.41211 -0.0801,0.0488 -0.50196,0.41797 -0.41796,0.46094 -0.46094,0.37695 0.20898,0.084 0.25196,-0.043 h 0.16601 l 0.084,0.084 0.084,0.084 -1.00391,2.17579 -2.17773,-2.00782 -0.41797,-0.21094 -0.33398,-0.33398 -0.084,-0.20898 v -0.21094 l 0.084,-0.16602 0.25195,-0.20898 0.33398,-0.084 0.37696,-0.084 0.29297,-0.084 0.084,-0.16602 0.082,-0.16797 -0.41797,-0.66992 -0.25195,-0.46094 -0.40625,-0.17773 z m -0.55274,2.9375 0.12696,0.084 0.041,-0.043 -0.084,-0.54297 z m -23.72851,-0.45898 v 2.68945 l -0.58594,0.0293 -0.30274,0.0547 0.0527,-0.34765 -0.29297,-0.46094 -0.084,-0.37695 0.041,-0.33399 0.21094,-0.29297 0.54297,-0.50195 0.29297,-0.29297 z m -25.82032,2.45312 v 0.0566 l -0.043,0.084 -0.0781,0.0469 z m 26.95118,2.52735 0.23046,0.0137 -0.0215,0.10937 -0.084,0.33594 -0.66993,0.75391 -0.16796,-0.12696 0.66992,0.66992 1.21484,1.00391 1.25586,0.96289 0.50195,0.33399 0.375,0.16797 0.33594,-0.16797 0.084,-0.041 0.084,0.084 0.125,0.16796 0.084,0.29297 0.041,0.33399 0.084,0.25 0.16797,0.12695 0.29297,-0.084 0.37695,0.66992 0.45899,0.54297 0.8789,0.96289 0.33594,0.50195 0.16602,0.58789 0.043,0.71094 -0.16797,0.87695 0.125,1.46484 -0.375,0.25196 -0.25196,0.125 -0.25195,0.084 0.41992,0.20899 0.50196,0.41797 0.79492,0.67187 0.16797,0.29297 0.084,0.33398 0.12305,0.33399 0.21094,0.25195 -0.66993,5.98438 -1.42382,0.71093 -0.45899,-0.16601 -0.41797,-0.043 -0.41992,0.084 -0.37695,0.125 -0.71094,0.37696 -0.71094,0.37695 -1.50586,3.84961 -1.38086,1.67383 v 1.20508 l -0.16796,0.01 -1.46485,-0.084 -1.38086,-0.20899 -1.42383,-0.37695 -1.29687,-0.46094 -1.21484,-0.58594 -1.17188,-0.75195 -0.92578,-0.6875 0.5918,-0.31836 1.00586,-0.66797 0.83593,-0.71289 0.58594,-0.041 0.62695,-0.16797 0.62891,-0.29297 0.58594,-0.37695 0.62695,-0.41797 0.54492,-0.50196 0.50196,-0.58593 0.45898,-0.58594 0.37695,-0.66992 0.29493,-0.62696 0.16601,-0.71289 0.084,-0.66796 v -0.66993 l -0.16797,-0.6289 -0.29297,-0.62696 -0.46094,-0.58593 -0.66797,-0.084 -0.58594,-0.20898 -0.54492,-0.29297 -0.50195,-0.41797 -0.45899,-0.50195 -0.41992,-0.54492 -0.71093,-1.17188 -0.20899,-0.20898 -0.20898,-0.041 -0.21094,0.125 -0.041,0.125 -0.16797,0.043 -0.16601,0.082 -0.16797,0.084 -0.16797,0.043 0.043,0.29297 0.082,0.25 0.33594,0.37696 v 0.8789 l 0.084,0.54297 v 0.46094 l -0.043,0.41992 -0.125,0.41797 -0.12695,0.33398 -0.20703,0.33594 -0.50391,0.58398 -1.1289,1.17188 -0.50196,0.67187 -0.41796,0.75196 -0.41993,0.96289 -0.58593,1.04687 -0.60157,0.96289 -0.61132,-0.79492 -0.71094,-1.21484 -0.58789,-1.25586 -0.45899,-1.29688 -0.28125,-0.93164 0.15625,-0.15625 0.29297,-0.12695 -0.20898,-0.20898 -0.33594,-0.46094 -0.125,-0.20703 -0.084,-0.71289 -0.084,-1.46485 0.084,-1.46484 0.13867,-1.14844 0.11328,0.0176 0.37695,0.084 0.375,0.12696 0.29297,0.16797 0.25195,0.33398 0.041,1.33789 0.33594,0.29297 0.375,0.16797 0.29492,0.20898 0.125,0.12696 0.084,0.16796 -0.5039,1.00391 0.21093,0.41797 0.29297,0.33398 0.33399,0.25196 0.33398,0.084 0.88086,-0.41992 0.16602,-0.041 -0.041,-0.043 -0.125,-0.12304 -0.084,-0.25196 -0.043,-0.46093 v 0.50195 l -0.041,-1.17187 0.041,-0.66993 0.084,-0.54296 0.084,-0.16797 0.125,-0.041 0.12695,0.125 0.20703,0.25 -0.125,-0.41797 -0.041,-0.37695 -0.50196,-0.66797 -0.54492,-0.66992 -0.25,-0.33594 -0.16797,-0.375 -0.16797,-0.41992 -0.041,-0.46094 0.29297,-0.62695 0.20898,-0.71094 0.084,-0.62891 v -0.58398 l 0.50195,-0.62891 0.58594,-0.58593 2.21875,-0.66993 0.41601,-0.54492 0.46094,-0.5 0.54492,-0.41992 0.54492,-0.37695 1.16992,-0.62696 1.17188,-0.58593 0.79687,-0.75391 -0.79687,-0.125 0.17383,-1.38867 1.33398,-0.20117 z m -35.1543,9.83398 0.75391,0.54297 0.29296,0.25195 0.16407,0.23047 -0.0586,0.81445 h -2.86914 l -0.041,-0.041 -0.20899,-0.25196 -0.041,-0.125 0.084,-0.16796 0.41797,-0.20899 0.54297,-0.37695 0.50195,-0.37695 z m -136.640626,1.12891 -0.332032,0.041 -0.460937,0.25195 -0.710937,0.54297 -0.419922,0.41993 -0.292969,0.375 -0.208985,0.41992 -0.167968,0.37695 -0.04102,0.41797 v 0.37695 l 0.04102,0.37696 0.125,0.41796 0.335937,0.75391 0.460938,0.71094 0.960937,1.29687 0.671875,0.87891 1.044922,1.13086 1.339844,1.33789 1.673828,1.46484 1.966797,1.63282 2.259766,1.67382 2.59375,1.75782 2.888671,1.71484 h 81.480471 l 0.29297,-1.79883 0.37695,-1.79883 0.50195,-1.75976 0.62891,-1.71485 0.71094,-1.67382 0.83789,-1.63282 0.91992,-1.58984 1.08789,-1.54883 h -97.761719 -0.5 l -0.460937,-0.084 -0.419922,-0.125 -0.333984,-0.16797 -0.335938,-0.20899 -0.25,-0.25 -0.167969,-0.29296 -0.125,-0.33594 v -0.25 l 0.08398,-0.16797 0.166015,-0.084 0.167969,-0.041 0.503906,-0.043 0.458985,0.043 H 119.47656 l 0.96289,-1.04688 1.00391,-1.0039 H 18.869141 l -0.585938,-0.084 -0.333984,-0.16797 -0.251953,-0.25 -0.208985,-0.20898 z m 343.628906,0 -0.20898,0.084 -0.20899,0.20898 -0.25195,0.25 -0.375,0.16797 -0.54492,0.084 H 256.70117 l 1.04688,1.0039 0.96093,1.04688 h 100.60743 l 0.46093,-0.043 0.46094,0.043 0.20899,0.041 0.16601,0.125 0.084,0.12695 -0.043,0.25 -0.12305,0.33594 -0.16797,0.29296 -0.25195,0.25 -0.29297,0.20899 -0.37695,0.16797 -0.375,0.12695 -0.46094,0.082 h -0.54492 -97.71875 l 1.04687,1.54883 0.96289,1.58984 0.83594,1.63282 0.71094,1.67382 0.58594,1.71485 0.50195,1.75976 0.41992,1.79883 0.29102,1.79883 h 81.48242 l 2.8457,-1.71484 2.5957,-1.7168 2.30079,-1.71484 1.96679,-1.63282 1.67383,-1.46484 1.33984,-1.33789 1.00391,-1.13086 0.71289,-0.87891 0.96094,-1.29687 0.46094,-0.71094 0.33398,-0.75391 0.084,-0.37695 0.084,-0.41797 v -0.37695 l -0.084,-0.41797 -0.125,-0.37695 -0.20898,-0.41992 -0.33398,-0.375 -0.41993,-0.37696 -0.66797,-0.58594 -0.5039,-0.25195 z M 172.5,276.82812 h 0.24805 l -0.0645,0.41797 h -0.61523 l 0.0547,-0.125 0.16601,-0.20898 z m -45.5332,2.71876 h 11.89648 l -0.0117,0.33593 0.084,2.55274 0.16797,2.55273 0.24804,1.88867 -0.16406,0.0371 -0.084,0.082 -0.008,0.0137 -0.0332,-0.13868 0.041,-0.20898 -0.16797,0.16797 -0.87891,0.71094 -2.25976,3.22265 -0.33399,2.30078 -0.33594,0.54493 -0.20898,0.33593 -0.125,0.16797 0.084,3.17969 -0.46093,0.46094 -0.46094,0.25 -0.45899,0.20898 -0.54492,0.084 -1.1289,0.125 -0.62891,0.084 -0.58594,0.125 h -0.33398 l -0.37696,0.043 -0.33398,0.041 -0.25195,-0.041 -0.125,0.041 -0.084,0.084 -0.043,0.20898 -0.041,0.16797 -0.084,0.084 -0.60156,-0.0664 -0.73828,-2.5293 -0.75195,-3.01367 -0.58594,-3.0957 -0.46094,-3.13867 -0.29297,-3.22266 -0.125,-3.22266 z m 14.23437,0 h 6.04297 l -0.69141,0.88085 -0.71093,1.08789 -0.46094,1.00391 -0.25,0.83594 -0.29492,0.92187 -0.33399,0.79493 -0.25,0.71093 -0.084,0.66992 0.66797,0.29297 0.12695,-0.125 0.16797,-0.33593 0.50195,-0.96094 0.41797,-0.92188 0.25,-0.41796 2.30274,-1.04688 0.084,-0.20898 0.25,-0.20899 0.66992,-0.37695 0.66992,-0.33399 0.41993,-0.29297 0.66796,-0.8789 1.04688,-0.79492 0.21875,-0.29492 h 2.3418 l -0.008,0.33593 0.041,1.75977 0.125,1.71484 0.20898,1.71485 0.33594,1.67578 0.37695,1.67187 0.45899,1.5918 0.5039,1.58984 0.62696,1.54688 0.66992,1.50781 0.75391,1.46484 0.83593,1.46485 0.87891,1.38086 0.96289,1.33984 1.00391,1.25586 1.08789,1.25391 0.17968,0.18554 -9.21093,9.20117 -0.2168,-0.17968 -1.63281,-0.71094 -0.082,-0.29297 v -0.25195 l 0.041,-0.20899 0.125,-0.20898 0.33399,-0.37695 0.41992,-0.41797 v -5.52344 l -0.16797,-0.21094 -0.16797,-0.125 -0.125,-0.16797 -0.041,-0.20898 -0.084,-0.41797 -0.16797,-0.54492 -0.16601,-0.46094 -0.043,-0.375 -0.58594,-0.62891 -0.41797,-0.41796 -0.16797,-0.125 v -0.25196 l -0.041,-0.29297 -0.25196,-0.58398 -0.20898,-0.50391 v -0.20898 l 0.084,-0.16797 0.62696,0.084 0.54492,0.084 -0.25195,-2.17578 -0.41797,-0.50196 -0.084,-0.29296 v -0.33594 l -0.33398,-0.41797 -0.25195,-0.41797 -0.41797,-1.00586 -0.20899,-1.04492 v -1.08789 l -1.84179,-1.75781 -0.33399,0.041 -0.25195,-0.041 -0.20899,-0.12696 -0.16797,-0.20898 -0.33593,-0.375 -0.20899,-0.12695 -0.20898,-0.041 -1.00391,-0.16797 -0.58593,-0.16797 -0.084,-0.084 0.12695,-0.12305 -3.73632,-1.99219 -0.15625,-1.27343 -0.20899,-2.42774 -0.043,-2.46875 z m 30.20899,0 h 1.0625 l -0.0156,0.33593 0.0703,1.42383 h -0.0703 -0.83594 l -0.46093,-0.043 -0.33594,-0.125 -0.25,-0.20898 -0.084,-0.33594 0.75391,-0.87891 0.16797,-0.16601 z m 53.97461,0 h 11.59375 l 0.0117,0.33593 -0.084,2.46875 -0.16797,2.42774 -0.29297,2.38476 -0.41797,2.34375 -0.54296,2.34375 -0.66993,2.25977 -0.7539,2.25976 -0.83594,2.17579 -0.96484,2.09374 -1.04493,2.0918 -1.17187,2.00977 -1.25586,1.92578 -1.29688,1.88281 -1.42382,1.83984 -1.50586,1.7168 -0.58008,0.61133 -1.25977,-1.25781 0.125,-2.91016 -0.6289,-1.29883 -0.043,0.084 -0.125,0.125 h -0.125 l -0.20899,-0.041 -0.66992,-0.33398 -0.71094,0.33398 -0.20898,0.041 h -0.12695 l -0.125,-0.125 -0.041,-0.084 -0.43164,0.89063 -0.65234,-0.65039 0.62304,-2.16407 0.41797,-1.08789 0.58594,-1.17382 0.043,-2.25977 v -0.66797 l -0.125,-0.54492 -0.21094,-0.375 -0.41797,-0.33594 -1.42187,-0.83593 -0.0957,-0.25586 0.13672,-0.20508 0.79492,-1.46485 0.75196,-1.46484 0.71289,-1.50781 0.38281,-1.01172 0.99805,-0.0762 -0.29297,-0.45899 -0.084,-0.12695 -0.041,-0.082 0.33398,-0.21094 1.00391,-0.50195 0.29492,0.29297 0.33399,0.20898 0.8789,0.33594 0.45899,-0.043 0.46093,-0.125 0.46094,-0.16797 0.45899,-0.25 0.8789,-0.62891 0.83789,-0.7539 1.50782,-1.33789 0.62695,-0.46094 0.29297,-0.125 0.29297,-0.041 -1.67383,-1.54882 -2.25977,-2.92969 v -1.79883 z m 13.90039,0 h 11.89062 l 1.63281,1.42382 -0.16797,3.22266 -0.29296,3.22266 -0.41797,3.13867 -0.62696,3.0957 -0.71093,3.01367 -0.92188,3.01367 -1.0039,2.88868 -1.17188,2.8457 -1.29687,2.80273 -1.42383,2.67774 -1.54883,2.63672 -1.63086,2.55273 -1.80078,2.4707 -1.88281,2.3418 -2.00977,2.25977 -0.72266,0.75195 -9.56445,-9.55469 0.66211,-0.69531 1.54883,-1.80078 1.50781,-1.92383 1.42188,-1.9668 1.29687,-2.00976 1.21289,-2.13477 1.08985,-2.17578 1.0039,-2.21875 0.92188,-2.25976 0.79297,-2.34375 0.67187,-2.38477 0.54297,-2.42773 0.46094,-2.50977 0.29297,-2.51172 0.20898,-2.55273 0.041,-2.55274 z m -116.12696,3.80859 0.20899,3.26562 0.41992,3.17969 0.54297,3.18164 0.71289,3.0957 0.57226,2.09376 h -2.20703 l -0.96093,1.08789 -0.96289,0.45898 -0.20899,-0.041 -0.125,-0.084 -0.29297,-0.25195 -0.25195,-0.16602 h -0.125 l -0.084,0.084 -1.42187,0.54296 -1.38281,0.54493 -0.33399,0.125 -0.0723,0.0605 -0.0117,-0.77148 0.084,-1.25586 0.084,-1.29688 0.16797,-1.21484 0.25,-1.25391 0.25195,-1.21484 0.33398,-1.21289 0.37696,-1.21484 0.46093,-1.16993 0.50196,-1.13085 0.58593,-1.13086 0.62696,-1.12891 0.66992,-1.08789 0.75391,-1.04688 z m 131.86914,0.043 0.83594,1.0039 0.75391,1.08789 0.66992,1.08985 0.62891,1.08594 0.58398,1.13086 0.50391,1.17187 0.41797,1.17187 0.41796,1.17188 0.33399,1.21289 0.25195,1.21484 0.20899,1.25391 0.16796,1.25586 0.16602,2.51172 v 1.29687 l -0.041,1.25586 -0.25,2.59375 -0.46093,2.63672 -0.62891,2.5957 -0.83594,2.59376 -1.0039,2.5957 -1.21485,2.55273 -1.38086,2.51172 -1.50586,2.42578 -1.33984,1.9668 -1.38086,1.88477 -1.42383,1.88281 -1.50586,1.79883 -1.54882,1.75781 -1.46875,1.58594 -8.1211,-8.11329 2.01563,-2.26171 1.96679,-2.34375 1.8418,-2.46875 1.75781,-2.51172 1.63086,-2.63477 1.50781,-2.7207 1.38086,-2.76172 1.2129,-2.8457 1.13085,-2.92969 1.00391,-2.9707 0.83789,-3.05665 0.71094,-3.0957 0.54492,-3.13867 0.375,-3.22266 z m -97.30078,0.16797 0.54492,0.041 0.20899,0.084 0.20898,0.125 0.25,0.46093 0.25196,0.33399 0.29297,0.25195 0.25,0.25195 1.13085,0.41797 -0.043,-0.084 -0.12305,-0.084 -0.25195,-0.084 -0.20899,-0.125 -0.043,-0.125 0.043,-0.16797 0.54297,-0.084 0.54492,-0.041 0.54297,0.125 0.20898,0.084 0.20899,0.125 -0.79492,0.46093 0.54492,-0.041 0.66992,0.12304 0.29297,0.12696 0.25195,0.20898 0.16602,0.25195 0.084,0.33399 0.87891,0.33398 0.91992,0.29297 0.41992,0.21094 0.375,0.25 0.29297,0.29297 0.16797,0.37695 0.16797,0.37696 0.20898,0.29296 0.25,0.20899 0.33594,0.12695 0.041,-0.084 0.16797,-0.12696 0.46093,-0.16796 0.75196,-0.125 0.3789,-0.29297 0.33203,-0.16797 0.33594,-0.041 0.29297,0.041 0.62695,0.21094 0.33594,0.041 h 0.37695 l 0.20899,-0.041 0.16797,-0.12696 0.29101,-0.29297 0.29297,-0.29101 0.12695,-0.0859 0.20899,0.043 0.043,0.25195 -0.043,0.25 v 0.16797 l 0.16797,0.125 -0.043,-0.33594 0.16797,-0.25 0.20898,-0.20898 0.16797,-0.20899 0.23828,-1.05859 0.59766,1.26758 0.8789,1.38086 0.92188,1.33984 0.14062,0.15039 -10.71679,10.70508 -0.0957,-0.0996 -1.0039,-1.17187 -0.96485,-1.21485 -0.87695,-1.21289 -0.83789,-1.29687 -0.75391,-1.33985 -0.71093,-1.38086 -0.62696,-1.38086 -0.54492,-1.46484 -0.50195,-1.46484 -0.45899,-1.50586 -0.33593,-1.54883 -0.29297,-1.5918 -0.14649,-1.11328 z m 36.07422,8.07617 0.79688,1.47851 -1.25782,0.44727 -0.3457,0.0937 0.0117,-0.0937 0.084,-0.25195 0.125,-0.16797 0.25,-0.041 0.33594,0.16797 -0.125,-0.16797 -0.084,-0.125 -0.12696,-0.16797 -0.082,-0.83789 0.041,-0.125 0.041,-0.125 0.12696,-0.041 z m -15.81836,0.66601 0.5,0.46485 1.29883,0.91992 1.33789,0.83789 1.4668,0.75391 1.54687,0.54296 1.5918,0.37696 1.63086,0.29297 0.58594,0.0293 v 4.95313 l -0.082,0.24805 -0.16797,0.58593 -0.54493,0.29297 -0.91992,0.45899 -0.8789,0.41992 -0.29297,0.16797 -0.084,0.125 -0.96289,0.50195 -0.79492,0.58594 -0.62695,0.66992 -0.46094,0.71094 -0.25,0.66992 -0.043,0.66992 0.043,0.33399 0.125,0.29296 0.16602,0.25196 0.25195,0.25 h 0.084 l 0.25,-0.125 0.87891,-0.41797 0.54492,-0.20899 0.66797,-0.125 0.67187,-0.043 0.75196,0.084 1.04687,-0.29297 0.62696,-0.27734 v 1.28125 l -0.46094,0.084 h -0.75195 l -0.125,-0.043 -0.16797,0.043 -0.50196,0.25 -0.6289,0.29492 -0.33399,0.082 h -0.25195 l -0.25,0.084 h -0.29297 l -0.79687,-0.20899 -0.71094,-0.29296 -0.375,-0.125 v 0.41796 l -0.043,0.29297 -0.084,0.29297 -0.125,0.20899 -0.33399,0.33593 -0.33594,0.125 -0.24609,0.25196 -0.006,-0.002 -1.50586,-0.45898 -1.46484,-0.50195 -1.46485,-0.54297 -1.38086,-0.62891 -1.38085,-0.71094 -1.33985,-0.7539 -1.29687,-0.83789 -1.21289,-0.87696 -1.21485,-0.96484 -1.17187,-1.00391 -0.41016,-0.39648 z m 16.73633,3.27149 -0.41602,0.49804 -0.29296,0.46094 -0.041,0.16797 0.041,0.084 -2.38477,-0.16797 -0.46094,0.33398 -0.54297,0.29297 -0.37695,0.1875 v -0.91211 l 0.54297,-0.0273 1.67383,-0.29297 1.54883,-0.37696 z m -156.808594,0.70703 -0.292968,0.043 -0.458985,0.25195 -0.712891,0.58399 -0.417968,0.37695 -0.292969,0.41992 -0.25,0.375 -0.126953,0.41992 -0.08398,0.37696 v 0.375 l 0.08398,0.41992 0.126953,0.37695 0.333984,0.75195 0.417969,0.71289 0.962891,1.3379 0.710937,0.83789 1.00586,1.1289 1.33789,1.33985 1.673828,1.50586 2.009766,1.58984 2.259766,1.7168 2.59375,1.71679 2.888672,1.71485 h 61.017582 l 0.62695,1.75781 0.66992,1.67383 0.66797,1.58984 0.75391,1.58984 0.7539,1.50782 0.79492,1.42187 0.79493,1.38086 0.83789,1.29688 1.46484,2.13476 1.50586,2.05078 1.58984,2.05078 1.63282,1.9668 1.67382,1.92578 1.75782,1.88281 1.79882,1.79883 1.8418,1.75977 1.88281,1.71484 1.96875,1.63282 2.00782,1.58984 2.05078,1.54883 2.09179,1.46484 2.17579,1.42188 2.17578,1.33984 2.21875,1.25391 2.30273,1.21484 2.30078,1.12891 2.34375,1.08984 2.42774,1.00391 2.42773,0.91992 2.46875,0.83789 2.50977,0.79492 2.51172,0.71094 2.5957,0.58593 2.59375,0.54493 2.63672,0.50195 2.63672,0.37695 2.67773,0.29297 2.7207,0.20899 2.72071,0.125 2.76172,0.041 2.76171,-0.041 2.76172,-0.125 2.67774,-0.20899 2.67968,-0.29297 2.67774,-0.37695 2.63672,-0.50195 2.5957,-0.54493 2.55274,-0.58593 2.55273,-0.71094 2.51172,-0.79492 2.46875,-0.83789 2.42578,-0.91992 2.38672,-1.00391 2.34375,-1.08984 2.3418,-1.12891 2.25976,-1.21484 2.26172,-1.25391 2.17578,-1.33984 2.13477,-1.42188 2.09179,-1.46484 2.0918,-1.54883 1.9668,-1.58984 1.96875,-1.63282 1.92383,-1.71484 1.84179,-1.75977 1.79883,-1.79883 1.75781,-1.88281 1.67383,-1.92578 1.63281,-1.9668 1.54883,-2.05078 1.54883,-2.05078 1.42188,-2.13476 1.67382,-2.67774 1.54883,-2.92969 0.71094,-1.58984 0.71289,-1.58984 0.66797,-1.67383 0.58594,-1.75781 h 61.05859 l 1.4668,-0.83789 1.42187,-0.87696 2.55274,-1.71679 2.30273,-1.7168 1.96484,-1.58984 1.67578,-1.50586 1.3379,-1.33985 1.04687,-1.1289 0.66797,-0.83789 0.96289,-1.3379 0.46094,-0.71289 0.33593,-0.75195 0.16602,-0.79687 v -0.375 l -0.041,-0.37696 -0.16796,-0.41992 -0.20899,-0.375 -0.29297,-0.41992 -0.41797,-0.37695 -0.71289,-0.58399 -0.45898,-0.25195 -0.33594,-0.043 -0.20898,0.12695 -0.20899,0.20899 -0.25195,0.20898 -0.375,0.20899 -0.54492,0.041 h -72.7344 l 0.084,2.05274 h 72.65039 0.46094 0.45898 l 0.21094,0.041 0.16601,0.125 0.084,0.16797 v 0.20898 l -0.125,0.33399 -0.20899,0.29492 -0.21093,0.25 -0.33399,0.20898 -0.33398,0.16797 -0.41993,0.125 -0.45898,0.084 -0.50195,0.041 H 265.9082 l -0.084,1.63282 -0.20899,1.63281 -0.25195,1.67383 -0.33398,1.67383 -0.41797,1.67382 -0.46094,1.71485 -0.54492,1.67578 -0.58399,1.71484 -0.043,0.084 -1.17188,3.05468 -1.29687,2.84571 -1.42383,2.63672 -1.46485,2.38476 -1.42187,2.09375 -1.46484,2.00781 -1.50782,1.9668 -1.58984,1.92578 -1.67383,1.88281 -1.67383,1.79883 -1.75781,1.75977 -1.79883,1.71484 -1.8418,1.67383 -1.92578,1.58984 -1.92382,1.54883 -2.00977,1.50586 -2.05078,1.42383 -2.0918,1.38086 -2.13476,1.29687 -2.17579,1.21485 -2.17578,1.21289 -2.25976,1.08789 -2.30274,1.04687 -2.34375,0.96289 -2.34375,0.91993 -2.42578,0.79492 -2.42773,0.7539 -2.47071,0.71094 -2.46874,0.58594 -2.55274,0.54492 -2.55273,0.45899 -2.59375,0.37695 -2.59571,0.29297 -2.63476,0.20898 -2.67969,0.12695 -2.67773,0.041 -2.67969,-0.041 -2.63477,-0.12695 -2.63672,-0.20898 -2.63671,-0.29297 -2.55469,-0.37695 -2.59375,-0.45899 -2.51172,-0.54492 -2.50977,-0.58594 -2.46875,-0.71094 -2.42773,-0.7539 -2.38477,-0.79492 -2.38672,-0.91993 -2.30078,-0.96289 -2.30078,-1.04687 -2.26172,-1.08789 -2.21679,-1.21289 -2.17774,-1.21485 -2.13281,-1.29687 -2.0918,-1.38086 -2.00976,-1.42383 -2.00977,-1.50586 -1.9668,-1.54883 -1.88281,-1.58984 -1.8418,-1.67383 -1.79882,-1.71484 -1.75782,-1.75977 -1.71484,-1.79883 -1.63281,-1.88281 -1.5918,-1.92578 -1.50586,-1.9668 -1.50586,-2.00781 -1.38086,-2.09375 -1.50781,-2.38476 -1.38086,-2.63672 -1.33789,-2.84571 -1.17187,-3.05468 -0.043,-0.16797 -0.58594,-1.67383 -0.54297,-1.67383 -0.46094,-1.67383 -0.37695,-1.67382 -0.33398,-1.67383 -0.25196,-1.67383 -0.20898,-1.63281 -0.125,-1.63282 H 40.755859 l -0.501953,-0.041 -0.460937,-0.084 -0.417969,-0.125 -0.376953,-0.16797 -0.292969,-0.20898 -0.25,-0.25 -0.167969,-0.29492 -0.125,-0.33399 v -0.20898 l 0.08398,-0.16797 0.125,-0.125 0.208984,-0.041 h 0.501953 0.419922 72.691402 l 0.084,-2.05274 H 39.542969 l -0.585938,-0.041 -0.376953,-0.20899 -0.25,-0.20898 -0.167969,-0.20899 z m 164.052734,0.92187 0.25,0.16602 0.25,0.16797 0.41992,0.50391 0.45899,0.5 0.25195,0.21093 0.29297,0.16602 -0.66992,0.043 -0.50196,0.125 -0.41796,0.25 -0.33399,0.29492 -0.58789,0.62695 -0.33398,0.29297 -0.33399,0.25 -0.043,0.71289 v 0.29297 l 0.16602,0.125 0.41992,0.16797 v 1.08789 l 0.041,0.96289 v 0.041 l 0.084,-0.041 0.12695,-0.125 0.20899,-0.21094 0.25195,-0.082 0.29102,-0.3789 0.16797,-0.33204 0.25195,-0.54492 0.082,-0.16797 0.21094,-0.12695 0.29297,-0.041 0.45898,-0.041 0.16797,0.125 0.084,0.16797 v 0.29297 l 0.041,0.125 0.084,0.16797 0.20899,0.125 0.37695,0.16796 0.125,0.125 0.043,0.125 0.041,0.33594 0.041,0.37695 0.043,0.16602 0.16797,0.125 0.54297,0.50391 0.66992,0.50195 0.71289,0.5625 -0.21094,0.14844 -1.29687,0.83789 -0.39258,0.22851 -0.19336,-0.35547 -0.33594,-0.33398 -0.29101,-0.25195 -0.16797,-0.33399 -0.75391,0.041 -0.79492,0.084 -0.87891,0.12696 -0.92187,0.20898 -0.83594,0.33398 -0.37695,0.20899 -0.29102,0.20898 -0.25195,0.29297 -0.125,0.29492 -3.6836,0.41602 -0.79492,-0.96094 0.043,-0.043 -0.043,-0.41797 -0.54492,-0.37695 -0.66797,-0.29297 -0.37695,-0.041 h -0.37695 l -0.33594,0.084 -0.33399,0.16602 -0.41796,0.25195 -0.41993,0.16602 -0.75195,0.11914 V 305.75 l 0.41797,-0.33789 0.33398,-0.37695 0.084,-0.25196 0.041,-0.16797 0.16797,-0.125 0.41992,-0.125 2.25977,-0.46093 2.38477,0.58593 1.75781,0.041 0.12695,-0.041 0.16602,-0.041 0.50195,0.041 0.54492,0.125 v 0.83789 l 0.082,0.41797 0.043,0.16797 0.125,0.084 0.125,-0.043 0.12695,-0.084 0.084,-0.20898 0.041,-0.29102 0.16797,-0.25195 0.16797,-0.29297 0.20899,-0.46094 0.084,-0.50195 0.041,-0.20898 -0.041,-0.125 -1.29883,-0.46094 -0.20898,0.084 -0.29297,-0.043 -0.50195,-0.041 -0.96289,-0.12695 -1.9668,-0.45899 1.38086,-0.25195 1.08789,-0.125 h 0.29492 0.082 v 0.043 l 0.29297,-0.043 h 0.50195 l 0.41797,-0.043 0.12696,-0.082 0.041,-0.12695 0.084,-0.16602 0.084,-0.20898 v -0.50196 l -0.043,-0.5039 0.084,-0.50196 0.16796,-0.16601 0.125,-0.16797 0.084,-0.37695 0.043,-0.46094 0.20898,-0.50195 z m 12.3457,2.00196 -0.67187,0.88672 -0.25,0.29296 -0.16797,-0.084 -0.16602,-0.21094 -0.043,-0.29297 0.20898,-0.20898 0.29297,-0.16797 0.6289,-0.16601 z m -48.66797,5.42773 0.49805,0.48047 1.21289,1.08789 1.29688,1.00391 1.33984,0.96289 1.38086,0.8789 1.42383,0.83789 1.50586,0.75196 1.50586,0.66992 1.54883,0.62695 1.58984,0.50391 0.34961,0.10156 -0.97656,0.69141 -0.41797,0.37695 -0.33594,0.41992 -0.20898,0.5 -0.084,0.54492 0.084,0.62696 0.29296,0.71289 -0.20898,1.33984 -0.25195,1.54688 0.16797,0.66992 0.25195,0.62695 0.33398,0.58789 0.37696,0.58399 0.50195,0.58789 0.54492,0.62695 1.33984,1.21289 1.2129,0.62891 0.66992,0.25 0.71094,0.16797 0.7539,0.16797 0.79492,0.084 h 0.79492 l 0.79493,-0.084 0.46093,-0.54493 0.45899,-0.41797 0.50391,-0.20898 0.082,-0.0215 v 3.60156 l -1.33789,-0.0234 -2.42774,-0.20898 -2.38476,-0.29297 -2.34375,-0.41992 -2.34571,-0.54297 -2.25781,-0.62696 -2.21875,-0.79687 -2.17578,-0.83594 -2.13477,-0.96289 -2.05078,-1.04687 -2.00781,-1.17188 -1.96875,-1.25391 -1.88281,-1.33984 -1.33008,-1.05273 -1.0957,-2.54688 -0.41993,-0.45898 -0.125,-0.16797 v -0.29297 l -0.75976,-0.18359 z m -47.96484,1.29492 0.16797,0.10547 0.46094,0.041 0.25,0.043 0.125,0.125 v 0.125 0.29492 l 0.084,0.12305 0.25195,0.12695 1.79883,0.62695 0.54493,0.62891 0.66992,0.54297 0.58593,0.21093 0.58594,0.082 0.58594,-0.041 0.62695,-0.125 0.33399,0.20898 0.29297,0.20899 0.25195,1.0039 0.33398,0.33399 0.25196,0.084 0.46093,0.084 0.91993,0.084 0.33398,0.37696 0.33594,0.33593 0.79492,0.62696 0.37695,0.29297 0.29297,0.37695 0.20899,0.41797 0.125,0.50195 1.92578,2.51172 1.92187,-0.60742 0.16992,0.27148 0.75391,1.0957 v 0.66211 l 1.50586,1.75782 0.24609,0.0391 1.09375,1.4668 1.9668,2.34375 2.05078,2.25976 0.0254,0.0254 -8.14258,8.13281 -1.50781,-1.6289 -1.54883,-1.75781 -1.50586,-1.79883 -1.42382,-1.88281 -1.38086,-1.88477 -1.33789,-1.9668 -1.54883,-2.42578 -1.33985,-2.51172 -1.21289,-2.55273 -1.00586,-2.5957 -0.83593,-2.59376 -0.66993,-2.63671 z m 91.91602,1.20118 0.94922,0.11718 2.38476,0.29297 1.17188,0.25196 1.21484,0.33398 1.21289,0.46094 0.0273,0.0117 0.7793,0.77929 -0.13672,0.0449 -0.37695,0.12696 h -0.29297 l -0.20898,-0.043 -0.16797,-0.041 -0.084,-0.084 -0.041,-0.20899 -0.37696,0.16602 -0.37695,0.043 -0.91992,-0.084 -1.00586,-0.16601 -1.04492,-0.16797 -0.54492,-0.37695 -0.58594,-0.25196 -0.58594,-0.16601 -0.62695,-0.12695 -1.21485,-0.25 -0.043,-0.0117 0.79687,-0.57422 z m 12.36132,6.8652 0.38282,0.38281 -1.03906,0.98828 -0.14454,0.12305 z m 2.01758,2.01562 9.57422,9.56446 -1.95312,1.84375 -2.30274,1.96679 -2.38476,1.8418 -2.46875,1.75781 -2.44922,1.53907 0.0215,-0.0332 0.37696,-0.54297 0.20898,-0.29296 0.25195,-0.20899 -0.79687,-0.043 -0.082,-0.25195 v -1.00391 l 0.041,-0.50195 0.16602,-0.45898 0.12695,-0.16797 0.125,-0.084 0.20899,-0.043 0.21093,0.043 0.25,-5.18945 0.71094,-1.00391 0.37695,-0.50195 0.29297,-0.46094 v -1.75781 l -0.41797,-0.58594 -0.37695,-0.37695 -0.37695,-0.33398 -0.37696,-0.46094 -1.17382,-2.2168 1.08984,-0.96289 z m -140.988278,0.69532 2.552734,2.8457 2.427735,2.59375 1.255859,1.29688 1.255859,1.17187 2.761719,2.55469 3.013672,2.67773 2.509766,2.25977 1.296874,1.25586 0.37695,0.33398 0.12696,0.043 h 0.125 l 0.084,-0.12695 0.084,-0.20899 0.082,-0.54297 0.16797,-4.18554 0.20898,-3.01367 0.29297,-2.63672 0.25195,-2.21875 0.125,-2.00782 0.043,-2.09179 h -6.906249 l 0.919921,2.42773 0.712891,2.0918 0.542969,1.79883 0.292969,1.29687 0.126953,0.88086 0.04102,0.66797 -0.251953,-0.25195 -0.583984,-0.83594 -0.88086,-1.50586 -0.5,-1.08789 -0.544921,-1.25586 -1.423829,-3.51562 -0.25,-0.71094 z m 193.177738,0 0.043,2.09179 0.125,2.00782 0.25196,2.21875 0.29297,2.63672 0.16601,3.01367 0.20899,4.18554 0.084,0.54297 0.043,0.20899 0.125,0.12695 h 0.084 l 0.16797,-0.043 0.37696,-0.33398 1.25586,-1.25586 2.55078,-2.25977 3.01367,-2.67773 2.76172,-2.55469 1.21484,-1.17187 1.29688,-1.29688 2.42773,-2.59375 2.55273,-2.8457 h -10.33789 l -0.25,0.71094 -1.42382,3.51562 -0.54297,1.25586 -0.54492,1.08789 -0.87891,1.50586 -0.58594,0.83594 -0.20898,0.25195 0.043,-0.66797 0.125,-0.88086 0.29101,-1.29687 0.54492,-1.79883 0.71094,-2.0918 0.92188,-2.42773 z m -195.939457,1.75781 -0.125,0.125 -0.126953,0.16797 -0.08398,0.25 -0.08203,0.37695 v 0.71094 l 0.166016,1.33984 0.210938,1.00391 0.458984,1.33984 0.669922,1.63282 0.83789,1.96679 2.134766,4.68555 2.552734,5.81836 0.710938,1.50586 0.83789,1.42383 0.876954,1.29687 0.96289,1.21289 1.003906,1.13086 1.087891,1.00391 1.089844,0.96289 1.128906,0.83789 1.087891,0.79297 1.130859,0.71289 2.216797,1.21289 2.093754,1.00391 1.88281,0.7539 4.39453,1.58984 5.27149,1.75977 7.11523,2.30078 1.00586,0.41797 0.29102,0.084 h 0.20898 l 0.084,-0.084 -0.041,-0.20898 -0.37695,-0.83789 -0.71094,-1.83985 -0.91992,-2.63672 -0.83789,-2.7207 -0.58594,-2.05078 -0.25195,-1.63281 -0.125,-1.79883 -0.043,-3.22266 -0.041,-0.79492 -0.16797,-1.04492 -0.29101,-1.21485 -0.37695,-1.38085 -0.50391,-1.50586 -0.58399,-1.54883 -0.66992,-1.63281 -0.79492,-1.58985 -0.83789,-1.54883 -0.96289,-1.54882 -0.96289,-1.42188 -0.96094,-1.33984 -1.67578,-2.17578 -0.96094,-1.25586 -0.46093,-0.50196 -0.16797,-0.084 h -0.125 l -0.084,0.084 -0.041,0.20899 -0.084,0.58593 -0.16797,4.98047 -0.125,7.53321 0.041,0.79492 0.043,0.7539 0.25,1.42188 0.41992,1.33984 0.50195,1.25586 0.62696,1.17188 0.71093,1.1289 1.46485,2.21875 3.80859,5.73243 2.21875,3.4746 -0.33594,-0.16796 -0.96093,-0.58594 -0.62891,-0.46094 -0.79492,-0.62695 -0.83594,-0.79492 -0.92187,-0.92188 -4.10157,-4.22656 -2.17578,-2.17578 -2.21875,-2.0918 -1.2539,-1.00586 -1.38086,-1.08789 -3.222665,-2.25976 -3.474609,-2.42579 -1.673828,-1.25586 -1.63086,-1.33984 -0.83789,-0.71094 -0.837891,-0.83789 -1.673828,-1.88281 -1.671875,-2.05078 -1.591797,-2.0918 -2.509765,-3.55664 -1.13086,-1.67578 -0.208984,-0.20898 z m 217.703127,0 -0.16797,0.041 -0.16797,0.20898 -1.12891,1.67578 -2.51171,3.55664 -1.58985,2.0918 -1.67383,2.05078 -1.71679,1.88281 -0.83594,0.83789 -0.79492,0.71094 -1.63282,1.33984 -1.71679,1.25586 -3.42969,2.42579 -3.22461,2.25976 -1.42187,1.08789 -1.21485,1.00586 -2.21679,2.0918 -2.21875,2.17578 -4.0586,4.22656 -0.91992,0.92188 -0.87891,0.79492 -0.7539,0.62695 -0.66992,0.46094 -0.9629,0.58594 -0.33398,0.16796 2.25977,-3.4746 3.76562,-5.73243 1.50781,-2.21875 0.66797,-1.1289 0.62891,-1.17188 0.54297,-1.25586 0.37695,-1.33984 0.25195,-1.42188 0.084,-0.7539 0.041,-0.79492 -0.125,-7.53321 -0.16797,-4.98047 -0.084,-0.58593 -0.082,-0.20899 -0.0859,-0.084 h -0.125 l -0.125,0.084 -0.46094,0.50196 -1.0039,1.25586 -1.63086,2.17578 -0.96485,1.33984 -0.96093,1.42188 -0.96289,1.54882 -0.87891,1.54883 -0.75391,1.58985 -0.71093,1.63281 -0.54493,1.54883 -0.50195,1.50586 -0.375,1.38085 -0.29492,1.21485 -0.16602,1.04492 -0.043,0.79492 -0.082,3.22266 -0.12695,1.79883 -0.25,1.63281 -0.54492,2.05078 -0.87891,2.7207 -0.8789,2.63672 -0.75391,1.83985 -0.33398,0.83789 -0.041,0.20898 0.084,0.084 h 0.16602 l 0.33398,-0.084 1.00586,-0.41797 7.11524,-2.30078 5.23047,-1.75977 4.39453,-1.58984 1.88281,-0.7539 2.0918,-1.00391 2.21875,-1.21289 1.1289,-0.71289 1.13086,-0.79297 1.12891,-0.83789 1.08789,-0.96289 1.04883,-1.00391 1.00391,-1.13086 0.96093,-1.21289 0.92188,-1.29687 0.79492,-1.42383 0.75391,-1.50586 2.55273,-5.81836 2.13281,-4.68555 0.79688,-1.96679 0.66797,-1.63282 0.46093,-1.33984 0.25,-1.00391 0.16797,-1.33984 v -0.71094 l -0.084,-0.37695 -0.125,-0.25 -0.125,-0.16797 z m -137.89844,2.41797 0.96484,0.67773 2.05079,1.29883 2.09375,1.21289 2.17578,1.13086 2.21875,1.00391 2.30078,0.91992 2.30078,0.79687 2.38672,0.66797 2.42773,0.54492 2.46875,0.45899 2.55274,0.29297 2.55273,0.21094 1.42188,0.0449 v 13.48437 l -2.0918,-0.0547 -3.22266,-0.25195 -3.13867,-0.375 -3.09766,-0.54492 -3.05468,-0.71094 -3.01172,-0.83789 -2.92969,-0.96289 -2.8457,-1.12891 -2.80469,-1.25585 -2.7207,-1.38086 -2.67774,-1.50782 -2.55273,-1.63086 -2.46875,-1.75781 -2.42774,-1.8418 -2.30273,-1.96679 -1.91602,-1.8418 2.53125,-2.52734 0.13868,0.18359 0.66992,0.71289 0.25195,0.25 0.25,0.125 1.04688,0.50391 0.54297,0.16601 0.58593,0.12696 0.62891,0.084 h 0.58594 l 0.58398,-0.084 0.58789,-0.16797 0.29102,-0.37696 0.37695,-0.29296 0.37695,-0.25 0.41993,-0.12696 0.91992,-0.16601 0.91992,-0.043 h 0.96289 l 0.92187,-0.084 0.45899,-0.125 0.41992,-0.125 0.375,-0.25195 0.37695,-0.29297 0.62891,-1.04687 0.041,-0.16602 -0.041,-0.125 -0.16797,-0.084 -0.25195,-0.043 z m -17.57422,0.01 1.00391,0.33399 0.37695,0.16797 0.33594,0.20898 0.084,-0.20898 v -0.20899 -0.16797 l 0.041,-0.084 0.0312,-0.01 0.13672,0.13477 0.75195,0.50195 0.14258,0.0781 -2.30078,2.29883 -0.77149,-0.78711 -1.3125,-1.47852 0.1836,-0.0254 0.46093,-0.25195 0.37696,-0.25196 z m 50.13672,3.47266 0.91992,0.29297 0.75391,0.33398 0.79492,0.41993 0.75195,0.50195 0.29493,0.29297 0.20898,0.29297 0.16602,0.29101 0.043,0.33594 -0.0449,0.1543 -0.0801,0.0137 -2.42773,0.29297 -2.42773,0.20898 -1.29688,0.0234 v -3.30664 l 1.00391,0.35351 0.25195,-0.16797 0.41797,-0.125 z m 42.60352,2.85547 8.13867,8.13086 -0.14649,0.14648 -1.67382,1.58985 -1.75782,1.58984 -1.79883,1.50586 -1.84179,1.4668 -1.88281,1.3789 -1.92579,1.33985 -1.96679,1.29687 -2.00977,1.25586 -2.05078,1.17188 -2.0918,1.08789 -2.13476,1.04687 -2.13281,1.00391 -2.21875,0.8789 -2.2168,0.87891 -2.26172,0.75391 -2.30078,0.75195 -2.30274,0.62891 -2.34375,0.58593 -2.38476,0.50196 -2.42774,0.41797 -2.42578,0.33593 -2.4707,0.29297 -2.46875,0.20899 -2.46875,0.084 -1.38086,0.0215 v -11.60156 l 2.13281,-0.0547 3.26563,-0.25196 3.17969,-0.375 3.18164,-0.54492 3.09765,-0.71094 2.13672,-0.58594 0.0801,0.16602 0.29297,0.46094 0.41992,0.29297 0.125,0.041 0.20703,-0.041 0.37891,-0.20899 0.41797,-0.33398 0.45898,-0.46094 0.83789,-0.83789 0.11133,-0.11133 0.55859,-0.18164 2.14063,-0.82422 0.0351,-0.0117 0.92188,-0.33593 0.96094,-0.41797 0.44922,-0.23438 1.26757,-0.56054 2.76172,-1.33985 2.72071,-1.50586 2.63671,-1.63281 2.50977,-1.71484 2.4707,-1.8418 2.38477,-1.9668 2.25976,-2.09179 z m -92.17188,0.0156 0.51953,0.51954 2.30274,2.09179 2.34375,1.92383 2.46875,1.88477 2.55273,1.71484 2.5957,1.63281 2.71875,1.50586 2.76172,1.33985 2.88868,1.25586 2.88671,1.1289 3.01368,0.96289 3.01367,0.83789 3.0957,0.71094 3.18164,0.54492 3.17969,0.375 3.26367,0.25196 2.13477,0.0547 v 11.60352 l -1.38086,-0.0234 -2.50977,-0.084 -2.4707,-0.20899 -2.46875,-0.29297 -2.42578,-0.33593 -2.38672,-0.41797 -2.38477,-0.50196 -2.34375,-0.58593 -2.34375,-0.62891 -2.25976,-0.75195 -2.30274,-0.75391 -2.21679,-0.87891 -2.17579,-0.8789 -2.17773,-1.00391 -2.13281,-1.04687 -2.09375,-1.08789 -2.00781,-1.17188 -2.00977,-1.25586 -2.00781,-1.29687 -1.92578,-1.33985 -1.88282,-1.3789 -1.79882,-1.4668 -1.80079,-1.50586 -1.75781,-1.58984 -1.71484,-1.58985 -0.10352,-0.10742 z m 54.80859,2.1543 0.11524,0.12109 1.88281,3.72461 -0.45898,0.50391 -0.084,0.16602 -0.041,0.16796 0.041,0.54297 0.084,1.13086 2.88672,3.09766 0.54492,0.29297 1.04687,0.54297 0.50196,0.37695 0.45898,0.37695 0.33594,0.33399 0.125,0.33594 0.29297,0.041 0.25,0.12695 0.1289,0.11524 -1.08984,0.30273 -3.05469,0.71094 -3.09765,0.54492 -3.13868,0.375 -3.22265,0.25195 -2.0918,0.0547 v -13.48437 l 1.42188,-0.0449 2.55468,-0.21094 2.50977,-0.29297 z m -77.0957,8.4082 -0.12695,0.12696 -0.041,0.16601 v 0.29297 l 0.20899,0.71289 0.125,0.375 0.084,0.46094 v 0.96289 1.16992 l 0.084,1.46485 0.125,0.8789 0.20898,1.13086 0.33594,1.29688 0.41797,1.42382 0.50195,1.54883 0.62891,1.54883 0.75195,1.58984 0.87891,1.54688 0.92187,1.46484 1.00391,1.29883 1.0039,1.21289 1.08789,1.08789 1.08789,1.00391 1.13086,0.92187 1.12891,0.87891 1.21484,0.75195 1.08789,0.66993 0.9629,0.54492 1.79882,0.79492 2.05078,0.91992 1.29688,0.62891 1.58984,0.8789 -1.75586,0.125 -1.75976,-0.041 -1.67188,-0.21094 -1.67578,-0.375 -1.58984,-0.46094 -1.50586,-0.58593 -1.46484,-0.62696 -1.38086,-0.71289 -2.67969,-1.42187 -2.50977,-1.17188 -2.42773,-1.04687 -2.34375,-0.83594 -2.42578,-0.79688 -2.59571,-0.66796 -2.80468,-0.62891 -3.13868,-0.62695 -1.58984,-0.33594 -1.50586,-0.37695 -1.38281,-0.41797 -1.25391,-0.41797 -1.17187,-0.45899 -1.08789,-0.5039 -1.884769,-0.96289 -1.505859,-0.91993 -1.171875,-0.8789 -0.878906,-0.71094 -0.585938,-0.54492 -0.417969,-0.37695 -0.335937,-0.20899 -0.25,-0.084 h -0.167969 l -0.08398,0.12695 0.04297,0.25 0.125,0.33399 0.208985,0.3789 1.423828,1.92383 2.802734,3.47266 1.716797,2.09375 1.882818,2.17578 1.9668,2.21875 2.00976,2.09179 0.96094,0.91993 1.04687,0.8789 1.00391,0.71289 1.08984,0.66992 1.04493,0.58594 1.08789,0.45899 1.08789,0.41992 1.04687,0.375 2.17578,0.54492 2.13477,0.41797 4.01758,0.54492 3.55664,0.33398 1.63281,0.084 h 1.50586 l 1.50781,-0.084 1.46485,-0.16796 1.42187,-0.29297 1.46484,-0.375 2.92969,-0.79688 2.80469,-0.62695 2.3418,-0.41797 1.67578,-0.12695 h 2.30078 l 0.66992,-0.041 0.41797,-0.084 0.084,-0.082 v -0.12696 l -0.20898,-0.29297 -0.54492,-0.50195 -0.79492,-0.66992 -2.59375,-1.9668 -1.42383,-1.21289 -1.12891,-1.17187 -0.92187,-1.17188 -0.71094,-1.17187 -0.66992,-1.25586 -0.62696,-1.38086 -1.54882,-3.26367 -0.96289,-1.75977 -1.00391,-1.50586 -1.00391,-1.38086 -1.08789,-1.21289 -1.08789,-1.13086 -1.13086,-1.04687 -2.30078,-1.92383 -1.13086,-0.96289 -1.08789,-0.96289 -1.92578,-1.92383 -1.54883,-1.63281 -1.0039,-1.21289 -0.29297,-0.33594 -0.25196,-0.16602 z m 136.7207,0 -0.20898,0.043 -0.25,0.16602 -0.33398,0.33594 -1.00391,1.21289 -1.50781,1.63281 -1.92578,1.92383 -1.08789,0.96289 -1.12891,0.96289 -2.34375,1.92383 -1.08789,1.04687 -1.13086,1.13086 -1.04492,1.21289 -1.04883,1.38086 -0.96094,1.50586 -0.96289,1.75977 -1.54883,3.26367 -0.62695,1.38086 -0.66992,1.25586 -0.75391,1.17187 -0.87695,1.17188 -1.13086,1.17187 -1.46484,1.21289 -2.55274,1.9668 -0.83789,0.66992 -0.50195,0.50195 -0.20899,0.29297 v 0.12696 l 0.084,0.082 0.37695,0.084 0.66992,0.041 h 2.3418 l 1.67578,0.12695 2.34375,0.41797 2.76172,0.62695 2.92773,0.79688 1.46485,0.375 1.46484,0.29297 1.46484,0.16796 1.4668,0.084 h 1.54688 l 1.63281,-0.084 3.55664,-0.33398 4.01758,-0.54492 2.13476,-0.41797 2.13477,-0.54492 1.08789,-0.375 1.08789,-0.41992 1.08789,-0.45899 1.04688,-0.58594 1.04492,-0.66992 1.04687,-0.71289 1.00391,-0.8789 1.00586,-0.91993 1.96484,-2.09179 1.96875,-2.21875 1.88282,-2.17578 1.75781,-2.09375 2.80469,-3.47266 1.3789,-1.92383 0.25195,-0.3789 0.125,-0.33399 v -0.25 l -0.084,-0.12695 h -0.125 l -0.25,0.084 -0.33594,0.20899 -0.41797,0.37695 -0.62695,0.54492 -0.88086,0.71094 -1.16992,0.8789 -1.50781,0.91993 -1.83985,0.96289 -1.08984,0.5039 -1.17188,0.45899 -1.29687,0.41797 -1.38086,0.41797 -1.46484,0.37695 -1.63282,0.33594 -3.0957,0.62695 -2.8457,0.62891 -2.55274,0.66796 -2.42773,0.79688 -2.38477,0.83594 -2.38672,1.04687 -2.50976,1.17188 -2.7207,1.42187 -1.33985,0.71289 -1.46484,0.62696 -1.54688,0.58593 -1.59179,0.46094 -1.63086,0.375 -1.7168,0.21094 -1.71484,0.041 -1.75977,-0.125 1.5918,-0.8789 1.29687,-0.62891 2.05078,-0.91992 1.79883,-0.79492 0.96289,-0.54492 1.08789,-0.66993 1.17188,-0.75195 1.17187,-0.87891 1.13086,-0.92187 1.08789,-1.00391 1.04688,-1.08789 1.04492,-1.21289 0.96289,-1.29883 0.96289,-1.46484 0.83789,-1.54688 0.75196,-1.58984 0.6289,-1.54883 0.54297,-1.54883 0.41797,-1.42382 0.33594,-1.29688 0.20898,-1.13086 0.125,-0.8789 0.084,-1.46485 -0.043,-1.16992 0.043,-0.96289 0.084,-0.46094 0.125,-0.375 0.20898,-0.71289 v -0.29297 l -0.082,-0.16601 z m -92.61328,31.55469 -1.96484,0.125 -2.05273,0.20899 -2.13282,0.25195 -2.25976,0.37695 -2.38477,0.45899 -4.89844,1.13086 -4.8125,1.1289 -4.72851,1.04883 -2.34375,0.45899 -2.30078,0.37695 -2.25977,0.29297 -2.30273,0.25 -2.25977,0.084 h -2.21875 l -2.2168,-0.16601 -2.17578,-0.33594 -2.17773,-0.50195 -2.17578,-0.66993 -0.66992,-0.16797 h -0.29297 l -0.16602,0.084 -0.12695,0.12695 v 0.20899 l 0.12695,0.25 0.29297,0.37695 0.79297,0.87891 0.96484,1.04687 1.21289,1.12891 1.50586,1.17187 1.00586,0.58594 1.42188,0.66992 1.79883,0.62695 2.05273,0.66993 2.25977,0.6289 2.46875,0.58594 2.55273,0.50195 2.63672,0.46094 2.50976,0.33399 2.25977,0.25 2.21875,0.084 2.2168,-0.084 2.38672,-0.29102 2.67773,-0.50391 3.05664,-0.79492 3.59766,-1.04492 3.59961,-1.21484 3.17968,-1.17188 2.88868,-1.08789 2.76171,-0.96289 1.38086,-0.41797 1.38086,-0.37695 1.42383,-0.33399 1.46289,-0.29297 1.50781,-0.21093 1.63282,-0.16602 1.71484,-0.125 1.8418,-0.043 1.48828,0.0332 -0.0234,0.0117 -2.8457,1.33985 -2.76367,1.54687 -2.67774,1.63282 -2.50976,1.71484 -2.34375,1.7168 -2.21875,1.75781 -2.00782,1.67383 -1.80078,1.58984 -1.54883,1.46484 -1.33789,1.29688 -1.84179,1.88477 -0.66992,0.71093 1.33984,0.37696 3.59961,1.0039 6.15234,-5.77539 4.89649,-4.51953 2.04882,-1.8418 1.88477,-1.63281 1.71484,-1.33789 1.58985,-1.17187 1.50781,-0.9629 1.42187,-0.7539 1.42188,-0.58594 1.46484,-0.46094 0.4336,-0.0957 0.44726,0.0957 1.42188,0.46094 1.42187,0.58594 1.46485,0.7539 1.50781,0.9629 1.58984,1.17187 1.67383,1.33789 1.88477,1.63281 2.09179,1.8418 4.89649,4.51953 6.15039,5.77539 3.59961,-1.0039 1.29687,-0.37696 -0.62695,-0.71093 -1.88281,-1.88477 -1.29688,-1.29688 -1.58984,-1.46484 -1.80078,-1.58984 -2.00782,-1.67383 -2.17773,-1.75781 -2.38477,-1.7168 -2.51171,-1.71484 -2.63672,-1.63282 -2.75977,-1.54687 -2.84765,-1.33985 -0.0234,-0.0117 1.48828,-0.0332 1.8418,0.043 1.71679,0.125 1.58985,0.16602 1.54687,0.21093 1.46485,0.29297 1.42382,0.33399 1.38086,0.37695 1.33985,0.41797 2.76172,0.96289 2.88671,1.08789 3.22266,1.17188 3.59961,1.21484 3.55664,1.04492 3.09766,0.79492 2.63672,0.50391 2.38476,0.29102 2.25977,0.084 2.17578,-0.084 2.30273,-0.25 2.50977,-0.33399 2.63672,-0.46094 2.55273,-0.50195 2.4707,-0.58594 2.25977,-0.6289 2.05078,-0.66993 1.75781,-0.62695 1.42188,-0.66992 1.04687,-0.58594 1.46485,-1.17187 1.21289,-1.12891 1.0039,-1.04687 0.79688,-0.87891 0.25,-0.37695 0.125,-0.25 0.043,-0.20899 -0.12696,-0.12695 -0.20703,-0.084 h -0.25195 l -0.71289,0.16797 -2.13281,0.66993 -2.17578,0.50195 -2.21875,0.33594 -2.21875,0.16601 h -2.2168 l -2.25977,-0.084 -2.25976,-0.25 -2.30274,-0.29297 -2.30273,-0.37695 -2.34375,-0.45899 -4.68555,-1.04883 -4.8125,-1.1289 -4.89648,-1.13086 -2.42774,-0.45899 -2.21875,-0.37695 -2.13476,-0.25195 -2.04883,-0.20899 -1.96875,-0.125 h -1.92383 l -1.88476,0.041 -1.88282,0.12695 -1.92382,0.20899 -1.92579,0.29296 -2.00781,0.37696 -2.05078,0.41797 -4.51953,1.04687 -5.10547,1.33789 -1.02539,0.28516 -1.02539,-0.28516 -5.10547,-1.33789 -4.52148,-1.04687 -2.0918,-0.41797 -2.00781,-0.37696 -1.92578,-0.29296 -1.88282,-0.20899 -1.88476,-0.12695 -1.88282,-0.041 z"
       transform="translate(110.94951,-95.01222)"
       id="path4"
       inkscape:connector-curvature="0" />
    <path
       d="m 340.23934,218.56025 0.29199,0.0419 0.33526,0.12559 0.58609,0.2934 0.58539,0.33385 0.33526,0.0837 0.33491,0.0419 0.29235,0.54458 0.50236,0.58539 0.46085,0.58644 0.33421,0.50236 0.12559,0.41794 0.0837,0.46085 0.0419,0.87844 -0.0837,0.87843 -0.16745,0.87984 -0.4598,1.79874 -0.16745,0.87949 -0.0419,0.83692 -0.67017,0.71098 -0.58539,-0.0419 -0.54458,-0.12559 -0.4598,-0.20862 -0.4605,-0.25118 -0.37712,-0.33526 -0.37607,-0.37678 -0.29305,-0.41793 -0.29304,-0.4605 -0.41794,-1.00438 -0.33491,-1.08811 -0.16781,-1.04589 -0.0419,-1.00508 2.05027,-2.0084 -0.0837,-0.66912 -0.12559,-0.67017 -0.1664,-0.58539 z"
       id="path54"
       style="fill:#009edb;fill-opacity:1"
       inkscape:connector-curvature="0" />
    <path
       d="m 264.82549,193.86908 0.50272,0.0837 0.50166,0.20967 0.4605,0.29199 0.37713,0.33526 0.0419,0.50237 0.12454,0.54352 0.37712,1.29743 0.29305,1.29742 0.0837,0.50236 v 0.41794 l -0.25119,0.20932 -0.20931,0.0422 -0.16781,-0.0841 -0.45945,-0.29199 -0.46085,-0.37712 -0.25118,-0.12559 -0.25154,-0.0419 -0.71098,-1.12997 -0.29304,-0.54423 -0.20932,-0.54352 -0.12489,-0.58645 0.0419,-0.62725 0.16676,-0.62831 z"
       id="path56"
       style="fill:#009edb;fill-opacity:1"
       inkscape:connector-curvature="0" />
    <path
       d="m 264.36499,191.98521 0.58609,-0.0837 0.50272,-0.20826 0.4598,-0.33526 0.50272,-0.4605 -0.33527,-1.17183 -0.0837,-0.66912 -0.0419,-0.67017 -0.41899,-0.58539 -0.20826,-0.33491 -0.0419,-0.25118 h -0.92136 l -0.66911,0.71168 v 1.79909 l -0.33527,0.46085 -0.33385,0.58539 -0.46085,1.00508 0.20932,0.0827 0.3342,0.12559 0.50272,0.0841 z"
       id="path58"
       style="fill:#009edb;fill-opacity:1"
       inkscape:connector-curvature="0" />
    <path
       d="m 296.17124,204.3308 -0.25154,-0.45945 -0.12559,-0.46085 -0.0419,-0.50166 v -0.62831 l 0.33526,-0.29305 0.20932,-0.0837 0.33491,-0.0419 0.37607,-0.50166 0.41899,-0.50272 0.7947,-0.83657 0.33491,0.12559 0.37713,0.0837 0.0419,0.2934 0.0837,0.25012 0.12559,0.20932 0.20827,0.16781 0.0841,1.04589 0.0837,1.00438 -0.20967,0.20932 -0.25012,0.25118 -0.29305,0.16781 -0.33526,0.0837 -0.0419,-0.67017 -0.0837,-0.3342 -0.0419,-0.1256 -0.0837,-0.0419 h -0.45979 l -0.0837,0.0837 -0.12559,0.12559 -0.20967,0.50166 -0.25118,0.87844 -0.54353,-0.0827 h -0.20932 z"
       id="path60"
       style="fill:#009edb;fill-opacity:1"
       inkscape:connector-curvature="0" />
    <path
       d="m 331.70089,165.41158 2.09319,-1.25556 1.0881,-0.7539 0.87844,-0.71098 -0.0837,-0.37712 -0.12559,-0.37678 -0.20861,-0.58538 h 1.33928 l 0.4598,-0.46086 -0.0837,-0.62725 -0.25118,-0.58609 -0.3342,-0.54353 -0.46086,-0.50271 -0.12559,-0.79471 -0.12559,-0.79576 -0.41793,0.0419 -0.33491,0.0419 -0.25119,0.12559 -0.25153,0.16746 -0.37572,0.41899 -0.20967,0.4598 -0.29305,1.12961 -0.12559,0.54458 -0.20932,0.46086 -0.25153,0.20826 -0.25013,0.16746 -0.33526,0.20967 -0.33491,0.16745 -0.20932,0.16746 0.0837,1.25556 0.12559,1.25556 -0.54352,0.29304 -0.37713,0.33421 -0.16745,0.4605 -0.0419,0.71098 0.92065,0.0419 h 0.20932 l 0.0419,-0.0419 -0.12559,-0.0827 z"
       id="path62"
       style="fill:#009edb;fill-opacity:1"
       inkscape:connector-curvature="0" />
    <path
       d="m 315.7983,126.28165 0.20932,0.37712 0.37712,0.37572 0.79471,0.71204 -0.54353,1.25556 -0.92135,-0.0837 -0.4598,-0.20932 -0.29304,-0.33526 -0.58645,-0.71098 -0.1664,-0.58645 -0.0419,-0.33385 0.0419,-0.12559 0.0827,-0.12594 0.0837,-0.0837 0.20932,-0.0419 h 0.41899 0.46085 z"
       id="path68"
       style="fill:#009edb;fill-opacity:1"
       inkscape:connector-curvature="0" />
    <path
       d="m 313.11972,129.21141 0.0837,0.3342 0.0422,0.25118 0.0837,0.2934 0.25118,0.29305 -0.0837,1.42301 h -0.79471 l -0.25153,-0.12559 -0.16746,-0.16745 -0.25118,-0.54458 -0.20967,-0.54353 -0.12454,-0.25118 -0.12559,-0.20932 0.0419,-0.12594 0.12454,-0.12559 0.41899,-0.12559 0.50272,-0.1256 0.25118,-0.0827 z"
       id="path70"
       style="fill:#009edb;fill-opacity:1"
       inkscape:connector-curvature="0" />
    <path
       d="m 312.07383,125.6952 0.0837,0.12595 0.12559,0.12559 0.33526,0.0837 0.37572,0.0837 0.16746,0.0837 0.20967,0.12559 -0.20967,1.17183 -0.87844,0.0837 -0.12559,1.25556 h -1.71536 l -0.20932,-0.0837 -0.0419,-0.12559 0.12559,-0.2934 0.12559,-0.33385 v -0.20967 l -0.0837,-0.16746 v -0.0837 l 0.0837,-0.0419 0.25048,-0.0837 0.29305,-0.1256 0.12559,-0.12559 0.1678,-0.1678 0.37678,-0.71098 z"
       id="path72"
       style="fill:#009edb;fill-opacity:1"
       inkscape:connector-curvature="0" />
    <path
       d="m 299.30926,165.78765 v -0.1678 h -0.1664 z"
       id="path80"
       style="fill:#009edb;fill-opacity:1"
       inkscape:connector-curvature="0" />
    <path
       d="m 299.30926,171.64717 v -0.0419 l -0.0827,-0.0419 z"
       id="path82"
       style="fill:#009edb;fill-opacity:1"
       inkscape:connector-curvature="0" />
    <path
       d="m 301.15126,211.90567 0.12559,-0.0837 z"
       id="path86"
       style="fill:#009edb;fill-opacity:1"
       inkscape:connector-curvature="0" />
  </g>
</svg>
