<?xml version="1.0" encoding="utf-8"?>
<!-- Generator: Adobe Illustrator 15.1.0, SVG Export Plug-In . SVG Version: 6.00 Build 0)  -->
<!DOCTYPE svg PUBLIC "-//W3C//DTD SVG 1.1//EN" "http://www.w3.org/Graphics/SVG/1.1/DTD/svg11.dtd">
<svg version="1.1" id="Layer_1" xmlns="http://www.w3.org/2000/svg" xmlns:xlink="http://www.w3.org/1999/xlink" x="0px" y="0px"
	 width="213.333px" height="275.333px" viewBox="0 0 213.333 275.333" enable-background="new 0 0 213.333 275.333" style="background: white;"
	 xml:space="preserve">
<g>
	<g>
		<path fill="#213381" d="M120.667,0c0,0-75.334,84.887,24,147.333c15.447,9.711,37.672,12.331,68.667,12.331V0H120.667z"/>
		<path fill="#213381" d="M0,275.333V0h38c0,0-15.176,66.478,12.667,111.333c30,48.332,67.033,59.667,106.667,63c0,0,27,2.667,56-7
			v108H0z"/>
	</g>
	<g>
		<path fill="#FFFFFF" d="M28.525,227.219l2.937,0.741c-0.616,2.412-1.723,4.252-3.322,5.518c-1.6,1.267-3.555,1.9-5.866,1.9
			c-2.392,0-4.336-0.487-5.835-1.461c-1.498-0.974-2.639-2.385-3.421-4.23c-0.782-1.848-1.173-3.83-1.173-5.949
			c0-2.311,0.441-4.326,1.324-6.047c0.883-1.721,2.14-3.027,3.77-3.921c1.629-0.893,3.423-1.339,5.381-1.339
			c2.22,0,4.087,0.564,5.601,1.695c1.514,1.13,2.568,2.719,3.164,4.768l-2.891,0.682c-0.515-1.615-1.262-2.791-2.24-3.527
			c-0.979-0.736-2.21-1.105-3.693-1.105c-1.706,0-3.131,0.409-4.276,1.227c-1.145,0.817-1.95,1.915-2.414,3.292
			c-0.464,1.378-0.696,2.798-0.696,4.261c0,1.888,0.275,3.535,0.825,4.942c0.55,1.408,1.405,2.46,2.565,3.156
			c1.16,0.696,2.417,1.044,3.769,1.044c1.645,0,3.037-0.474,4.178-1.422C27.349,230.494,28.121,229.086,28.525,227.219z"/>
		<path fill="#FFFFFF" d="M36.017,215.943v-3.134h2.725v3.134H36.017z M36.017,235v-16.075h2.725V235H36.017z"/>
		<path fill="#FFFFFF" d="M48.625,235l-6.115-16.075h2.876l3.451,9.627c0.373,1.039,0.716,2.119,1.029,3.239
			c0.242-0.848,0.58-1.867,1.014-3.058l3.572-9.809h2.8L51.168,235H48.625z"/>
		<path fill="#FFFFFF" d="M60.946,215.943v-3.134h2.725v3.134H60.946z M60.946,235v-16.075h2.725V235H60.946z"/>
		<path fill="#FFFFFF" d="M69.029,235v-22.19h2.725V235H69.029z"/>
		<path fill="#FFFFFF" d="M83.332,235l8.522-22.19h3.164L104.1,235h-3.345l-2.588-6.721h-9.279L86.45,235H83.332z M89.735,225.887
			h7.523l-2.316-6.146c-0.707-1.867-1.231-3.4-1.574-4.602c-0.283,1.423-0.681,2.836-1.196,4.238L89.735,225.887z"/>
		<path fill="#FFFFFF" d="M111.274,235l-6.115-16.075h2.876l3.451,9.627c0.373,1.039,0.716,2.119,1.029,3.239
			c0.242-0.848,0.58-1.867,1.014-3.058l3.572-9.809h2.8L113.817,235H111.274z"/>
		<path fill="#FFFFFF" d="M123.595,215.943v-3.134h2.725v3.134H123.595z M123.595,235v-16.075h2.725V235H123.595z"/>
		<path fill="#FFFFFF" d="M142.228,233.017c-1.009,0.857-1.98,1.463-2.914,1.816c-0.934,0.353-1.936,0.529-3.005,0.529
			c-1.766,0-3.124-0.432-4.072-1.294c-0.949-0.863-1.423-1.966-1.423-3.308c0-0.787,0.179-1.506,0.538-2.157
			c0.358-0.65,0.827-1.173,1.407-1.566c0.581-0.394,1.234-0.691,1.96-0.894c0.535-0.141,1.342-0.277,2.422-0.408
			c2.2-0.263,3.819-0.575,4.859-0.938c0.01-0.373,0.015-0.61,0.015-0.712c0-1.109-0.257-1.892-0.772-2.346
			c-0.696-0.615-1.731-0.924-3.103-0.924c-1.282,0-2.228,0.226-2.838,0.674c-0.61,0.449-1.062,1.244-1.354,2.385l-2.664-0.363
			c0.242-1.141,0.641-2.062,1.196-2.763c0.555-0.701,1.357-1.241,2.407-1.62c1.049-0.378,2.265-0.567,3.648-0.567
			c1.372,0,2.487,0.161,3.345,0.484c0.857,0.323,1.488,0.729,1.892,1.219c0.403,0.489,0.686,1.107,0.848,1.854
			c0.091,0.464,0.136,1.301,0.136,2.512v3.633c0,2.533,0.058,4.136,0.174,4.807c0.116,0.671,0.346,1.314,0.689,1.93h-2.846
			C142.49,234.434,142.308,233.773,142.228,233.017z M142,226.931c-0.989,0.404-2.473,0.747-4.45,1.029
			c-1.12,0.162-1.913,0.344-2.376,0.545c-0.464,0.202-0.823,0.498-1.075,0.886c-0.252,0.389-0.378,0.82-0.378,1.294
			c0,0.727,0.275,1.332,0.825,1.816c0.55,0.484,1.355,0.727,2.415,0.727c1.049,0,1.983-0.229,2.8-0.688
			c0.817-0.459,1.417-1.087,1.801-1.884c0.292-0.616,0.439-1.524,0.439-2.725V226.931z"/>
		<path fill="#FFFFFF" d="M156.198,232.562l0.394,2.407c-0.767,0.161-1.453,0.242-2.059,0.242c-0.989,0-1.756-0.156-2.301-0.47
			c-0.545-0.313-0.929-0.724-1.15-1.233c-0.222-0.509-0.333-1.581-0.333-3.216v-9.249h-1.998v-2.119h1.998v-3.981l2.709-1.635v5.616
			h2.74v2.119h-2.74v9.399c0,0.777,0.048,1.277,0.144,1.499c0.096,0.222,0.252,0.398,0.47,0.53c0.217,0.131,0.527,0.196,0.931,0.196
			C155.305,232.668,155.704,232.633,156.198,232.562z"/>
		<path fill="#FFFFFF" d="M160.148,215.943v-3.134h2.725v3.134H160.148z M160.148,235v-16.075h2.725V235H160.148z"/>
		<path fill="#FFFFFF" d="M167.277,226.962c0-2.978,0.827-5.183,2.482-6.615c1.382-1.19,3.067-1.786,5.056-1.786
			c2.21,0,4.016,0.725,5.419,2.172c1.402,1.448,2.104,3.449,2.104,6.002c0,2.068-0.311,3.696-0.931,4.882
			c-0.621,1.186-1.524,2.106-2.71,2.762c-1.186,0.656-2.48,0.984-3.882,0.984c-2.25,0-4.069-0.722-5.457-2.164
			C167.971,231.755,167.277,229.676,167.277,226.962z M170.078,226.962c0,2.059,0.449,3.6,1.347,4.624
			c0.898,1.024,2.028,1.536,3.391,1.536c1.352,0,2.477-0.515,3.375-1.544c0.898-1.029,1.347-2.599,1.347-4.708
			c0-1.987-0.452-3.493-1.355-4.518c-0.903-1.024-2.026-1.537-3.368-1.537c-1.362,0-2.493,0.51-3.391,1.529
			C170.526,223.365,170.078,224.904,170.078,226.962z"/>
		<path fill="#FFFFFF" d="M186.803,235v-16.075h2.452v2.286c1.181-1.767,2.886-2.649,5.116-2.649c0.969,0,1.859,0.174,2.672,0.522
			c0.812,0.348,1.42,0.805,1.824,1.369c0.403,0.565,0.686,1.236,0.848,2.014c0.101,0.505,0.151,1.388,0.151,2.648V235h-2.725v-9.778
			c0-1.11-0.106-1.939-0.318-2.49c-0.212-0.55-0.588-0.988-1.128-1.316c-0.54-0.328-1.173-0.492-1.899-0.492
			c-1.161,0-2.162,0.368-3.005,1.104c-0.842,0.737-1.264,2.135-1.264,4.193V235H186.803z"/>
	</g>
	<g>
		<path fill="#FFFFFF" d="M62.756,260.833l8.522-22.19h3.164l9.082,22.19h-3.345l-2.588-6.721h-9.279l-2.437,6.721H62.756z
			 M69.159,251.721h7.523l-2.316-6.146c-0.707-1.867-1.231-3.4-1.574-4.602c-0.283,1.423-0.681,2.836-1.196,4.238L69.159,251.721z"
			/>
		<path fill="#FFFFFF" d="M98.165,260.833v-2.361c-1.251,1.816-2.952,2.725-5.101,2.725c-0.949,0-1.834-0.182-2.656-0.545
			c-0.823-0.363-1.433-0.819-1.832-1.37c-0.398-0.55-0.679-1.224-0.84-2.021c-0.111-0.535-0.167-1.383-0.167-2.543v-9.96h2.725
			v8.915c0,1.424,0.055,2.382,0.167,2.877c0.171,0.716,0.535,1.278,1.09,1.688c0.555,0.408,1.241,0.613,2.059,0.613
			s1.584-0.21,2.301-0.629c0.716-0.418,1.224-0.988,1.521-1.71c0.297-0.722,0.446-1.769,0.446-3.142v-8.612h2.725v16.075H98.165z"/>
		<path fill="#FFFFFF" d="M112.927,258.396l0.394,2.407c-0.767,0.161-1.453,0.242-2.059,0.242c-0.989,0-1.756-0.156-2.301-0.47
			c-0.545-0.313-0.929-0.724-1.15-1.233c-0.222-0.509-0.333-1.581-0.333-3.216v-9.249h-1.998v-2.119h1.998v-3.981l2.709-1.635v5.616
			h2.74v2.119h-2.74v9.399c0,0.777,0.048,1.277,0.144,1.499c0.096,0.222,0.252,0.398,0.469,0.53
			c0.217,0.131,0.527,0.196,0.931,0.196C112.034,258.502,112.433,258.467,112.927,258.396z"/>
		<path fill="#FFFFFF" d="M117.7,260.833v-22.19h2.725v7.962c1.271-1.474,2.876-2.21,4.813-2.21c1.19,0,2.225,0.234,3.103,0.704
			c0.878,0.469,1.506,1.117,1.884,1.945c0.379,0.827,0.568,2.027,0.568,3.602v10.188h-2.725v-10.188
			c0-1.361-0.295-2.354-0.885-2.974c-0.591-0.621-1.426-0.931-2.505-0.931c-0.808,0-1.567,0.209-2.278,0.628
			c-0.712,0.419-1.219,0.986-1.521,1.702c-0.303,0.717-0.454,1.706-0.454,2.967v8.795H117.7z"/>
		<path fill="#FFFFFF" d="M136.034,252.796c0-2.978,0.827-5.183,2.482-6.615c1.382-1.19,3.067-1.786,5.056-1.786
			c2.21,0,4.016,0.725,5.419,2.172c1.402,1.448,2.104,3.449,2.104,6.002c0,2.068-0.311,3.696-0.931,4.882
			c-0.621,1.186-1.524,2.106-2.71,2.762c-1.186,0.656-2.48,0.984-3.882,0.984c-2.25,0-4.069-0.722-5.457-2.164
			C136.728,257.589,136.034,255.51,136.034,252.796z M138.834,252.796c0,2.059,0.449,3.6,1.347,4.624
			c0.898,1.024,2.028,1.536,3.391,1.536c1.352,0,2.477-0.515,3.375-1.544c0.898-1.029,1.347-2.599,1.347-4.708
			c0-1.987-0.452-3.493-1.355-4.518c-0.903-1.024-2.026-1.537-3.368-1.537c-1.362,0-2.493,0.51-3.391,1.529
			C139.283,249.199,138.834,250.738,138.834,252.796z"/>
		<path fill="#FFFFFF" d="M156.367,260.833v-16.075h2.452v2.437c0.625-1.14,1.203-1.892,1.733-2.255
			c0.529-0.363,1.112-0.545,1.748-0.545c0.918,0,1.852,0.293,2.8,0.878l-0.938,2.527c-0.666-0.393-1.332-0.59-1.998-0.59
			c-0.596,0-1.13,0.18-1.604,0.537c-0.475,0.358-0.813,0.855-1.014,1.491c-0.303,0.969-0.454,2.028-0.454,3.179v8.416H156.367z"/>
		<path fill="#FFFFFF" d="M168.843,241.777v-3.134h2.725v3.134H168.843z M168.843,260.833v-16.075h2.725v16.075H168.843z"/>
		<path fill="#FFFFFF" d="M183.772,258.396l0.394,2.407c-0.767,0.161-1.453,0.242-2.059,0.242c-0.989,0-1.756-0.156-2.301-0.47
			c-0.545-0.313-0.929-0.724-1.15-1.233c-0.222-0.509-0.333-1.581-0.333-3.216v-9.249h-1.998v-2.119h1.998v-3.981l2.709-1.635v5.616
			h2.74v2.119h-2.74v9.399c0,0.777,0.048,1.277,0.145,1.499c0.096,0.222,0.252,0.398,0.469,0.53
			c0.217,0.131,0.527,0.196,0.932,0.196C182.879,258.502,183.278,258.467,183.772,258.396z"/>
		<path fill="#FFFFFF" d="M188.422,267.025l-0.303-2.559c0.596,0.161,1.115,0.242,1.56,0.242c0.605,0,1.09-0.101,1.453-0.303
			s0.661-0.484,0.894-0.848c0.171-0.272,0.448-0.948,0.832-2.028c0.051-0.151,0.131-0.373,0.242-0.666l-6.1-16.105h2.936l3.346,9.31
			c0.434,1.18,0.822,2.422,1.166,3.723c0.313-1.251,0.686-2.472,1.119-3.662l3.437-9.37h2.725l-6.115,16.348
			c-0.656,1.766-1.165,2.981-1.528,3.647c-0.484,0.898-1.04,1.557-1.666,1.976c-0.625,0.419-1.372,0.628-2.24,0.628
			C189.654,267.357,189.069,267.247,188.422,267.025z"/>
	</g>
</g>
</svg>
