<?xml version="1.0" encoding="utf-8"?>
<!-- Generator: Adobe Illustrator 25.0.1, SVG Export Plug-In . SVG Version: 6.00 Build 0)  -->
<svg version="1.0" id="katman_1" xmlns="http://www.w3.org/2000/svg" xmlns:xlink="http://www.w3.org/1999/xlink" x="0px" y="0px"
	 viewBox="0 0 1200 800" style="enable-background:new 0 0 1200 800;" xml:space="preserve">
<style type="text/css">
	.st0{fill:#FCDD53;stroke:#E42A2B;stroke-width:8.0291;stroke-miterlimit:1.0705;}
	.st1{fill:#478C3E;}
	.st2{fill-rule:evenodd;clip-rule:evenodd;fill:#0F477F;}
</style>
<circle class="st0" cx="230.3" cy="392.5" r="87.8"/>
<path class="st1" d="M289.4,413.1c-2.9,3.5-5.6,5.4-10.4,6.2h-53c-2.7-1.3-2.9-3.2,0-4.5h30c2.7,0,5.1-0.8,7-3.2
	c8.8-11.8,19-23,26.8-35.9c-3.5,3.2-5.6,5.1-10.7,5.9h-36.7c-3.7,0-6.7,1.3-9.1,4.5c-7.2,9.4-14.7,18.5-21.9,27.8
	c-19,22.7-32.1-27.3-6.4-19.3c-3.5-4.5-7.2-8.8-10.7-13.4c-2.7-2.7-6.7-2.9-9.4,0c-16.1,20.3-16.3,51.7,17.1,54.6h71.2
	C278.4,428.1,284.1,420.6,289.4,413.1z M278.4,349.4c-2.4,1.9-4,2.7-7.8,2.7h-32.4c-3.2,0-7.2,1.3-9.4,4l-20.6,26.2l5.9,7.5l7.2-8.8
	c2.4-2.7,5.1-3.7,8.8-3.7h20.1C260.5,377.3,273.6,355.3,278.4,349.4z"/>
<g transform="translate(-7 -10)">
	<path class="st2" d="M946,377.1l-12.3,45H916l20.3-73.9h17.9l14.7,44.7l12.3-44.7H999L978.3,422h-17.7L946,377.1z M874.8,395.8
		h17.4l-1.1-26.5L874.8,395.8z M905.5,348.2l5.9,73.9H893l-0.8-13.6h-24.4l-8.3,13.6H841l46.6-73.9H905.5z M824.7,362.6h-21.1
		l4-14.5h59.7l-4,14.5h-20.9L825.8,422h-17.4L824.7,362.6z M750.3,398.2c0,8.3,4.3,13.9,13.6,12.3c13.1-2.7,12-18.7-3.5-20.3
		c-13.1-1.6-19.8-12.3-16.6-24.9c5.6-12,15-17.1,28.6-18.7h0.3c10.2-2.1,25.4,0.5,27,13.4c0.3,2.1,0.8,6.4-0.5,8.6h-16.6
		c0-3.7-0.8-7.2-4.5-8.3c-12.3-3.5-27.8,11-1.9,17.7c6.7,1.6,15.8,4,17.7,11.5c2.7,13.1-5.1,25.4-15.5,31.3
		c-9.6,4-23.6,4.3-33.5,2.4c-12.3-4.3-14.7-12-12.6-24.9H750.3z M738,348.2c-7,24.6-13.6,49.2-20.3,73.9H700l20.3-73.9H738z
		 M656.1,377.1l34-28.9h21.4l-36.4,30.5l18.5,43.4h-21.7l-12-31.3l-9.6,8l-6.7,23.3h-17.4l20.6-73.9h17.4L656.1,377.1z M588.7,377.6
		h34.8l-3.7,13.4h-34.5l-4.5,16.6h39.6l-3.7,14.5H559l20.3-73.9H636l-4,14.5h-39.1L588.7,377.6z M522.3,361.8l-4.3,15.8h13.4
		c4.8,0,9.4-2.1,11.2-7.8c1.1-3.5,0.3-6.2-3.2-7.5C534.9,361,527.4,361.8,522.3,361.8z M514.3,390.5l-4.8,18.2
		c9.9,0,24.1,2.9,27.8-9.4c1.1-6.4-3.5-8.8-9.1-8.8H514.3z M544.8,348.2c9.1,0,19,3.5,17.1,14.5c-1.3,8.6-8.8,16.6-16.6,19.5v0.5
		c11.2,0,11.2,14.7,8.6,22.2c-4,11.8-16.6,17.1-28.4,17.1H488l20.3-73.9H544.8z M470.9,362.9h-33.7l4.3-14.7h55.1l-3.5,13.6
		l-48.7,45.5h38.3l-3.7,14.7h-60l4.3-15.5L470.9,362.9z M387.7,348.2c-4,14.5-8.3,28.9-12.3,43.1c-1.6,7.5-1.3,20.1,9.6,18.5
		c8.8-1.1,15.8-10.2,17.7-18.5c3.7-14.2,7.5-28.6,11.5-43.1h17.4c-5.4,19.5-8.3,46-20.9,63.2c-8.8,8.6-16.9,12.3-30,12.3
		c-21.1,0-26.2-9.6-23.6-29.7c4-15.3,8.3-30.5,12.6-45.8H387.7z"/>
	<path id="a" class="st2" d="M759.2,478.5c-4.8,0-13.1,1.9-14.7,7c-1.1,2.1,0.8,3.7,2.7,4.5C755.1,490,756.5,484.4,759.2,478.5z
		 M738.5,470.2c0-8.6,11.2-11.8,18.5-12.8c7,0,12-0.3,15.5,5.9c0.3,1.9,0.5,2.9,0.3,4.8c-1.3,6.7-8.3,21.4-5.6,27.6v0.3h-11.8v-3.2
		c-23.8,17.1-32.4-14.5-7.8-17.7c2.1-0.5,13.9-1.6,13.9-6.2c0-7.5-8.8-4.5-11.5-0.5c0,0.5-0.5,1.6-0.5,1.9H738.5z"/>
	<g>
		<path id="a_1_" class="st2" d="M907.4,478.5c-4.8,0-13.1,1.9-14.7,7c-1.1,2.1,0.8,3.7,2.7,4.5C903.4,490,904.7,484.4,907.4,478.5z
			 M886.8,470.2c0-8.6,11.2-11.8,18.5-12.8c7,0,12-0.3,15.5,5.9c0.3,1.9,0.5,2.9,0.3,4.8c-1.3,6.7-8.3,21.4-5.6,27.6v0.3h-11.8v-3.2
			c-23.8,17.1-32.4-14.5-7.8-17.7c2.1-0.5,13.9-1.6,13.9-6.2c0-7.5-8.8-4.5-11.5-0.5c0,0.5-0.5,1.6-0.5,1.9H886.8z"/>
	</g>
	<path class="st2" d="M854.7,472.9l-12,23h-11.8l-1.1-37.5h12l-0.5,23l11.8-23h11l-1.1,23l12-23h12.6l-21.9,37.5h-12L854.7,472.9z
		 M828.7,457.6l-2.4,8.8h-0.5c-3.7,0-4.5-0.3-8,1.1c-5.1,2.9-7.5,7-9.1,13.1l-4,15.3h-13.4l12.3-37.5h10.7l-1.6,5.1
		C817.2,459.2,822.8,457.6,828.7,457.6z M785.1,453.1l2.1-8.8H799l-2.4,8.8H785.1z M795,458.4l-10.2,37.5h-11.5l10.4-37.5H795z
		 M920.3,501.8c7.5,0,7,0,11-6.4l-5.6-36.9h13.6l1.6,23.3l12.3-23.3h12l-23,39.6c-6.2,9.9-11.8,11.2-24.1,11.2L920.3,501.8z
		 M959.9,483.6h11c-0.5,2.4-0.5,3.5,1.1,5.4c4,3.2,8.6,0.5,10.7-3.2c1.1-6.7-12-4.5-16.6-9.1c-1.1-1.3-1.6-2.1-1.6-4
		c0-3.7,1.1-7.2,3.5-10.2c1.6-1.6,3.5-2.7,5.6-3.5c3.5-1.3,7-1.6,10.4-1.6c2.4,0,4.3,0,6.7,0.3c6.7,1.1,6.7,5.9,6.7,11h-10.4
		l0.3-1.1c0-3.5-2.7-3.5-5.1-3.5c-3.2,0-5.6,1.3-6.2,4.8c0,1.6,0.8,2.4,2.1,2.9c9.6,1.6,19.8,3.5,15.8,14.2
		c-1.9,4.5-5.4,7.8-9.9,9.6c-2.9,1.1-6.7,1.3-9.9,1.3c-2.7,0-5.4,0-8-0.8c-2.4-1.1-4-2.1-5.6-4c-1.6-3.2-1.9-4.8-1.3-8.6H959.9z"/>
</g>
</svg>
